/* XPM */
static char *cc30485b0e7c44caac8913e5f7babfbbyZtWzPZCxx8aE1eE[] = {
/* columns rows colors chars-per-pixel */
"32 30 94 2 ",
"   c #4F2713",
".  c #4E2913",
"X  c #532C14",
"o  c #542E19",
"O  c #57321C",
"+  c #59341D",
"@  c #5D381E",
"#  c #5B3721",
"$  c #5E3B24",
"%  c #613D25",
"&  c #613E29",
"*  c #624127",
"=  c #64442C",
"-  c #674B2F",
";  c #694A2F",
":  c #674731",
">  c #654A35",
",  c #6A4D31",
"<  c #634C38",
"1  c #6C4E39",
"2  c #6E5134",
"3  c #66513D",
"4  c #705335",
"5  c #735539",
"6  c #75593B",
"7  c #785A3E",
"8  c #675341",
"9  c #695542",
"0  c #6C5843",
"q  c #6F5F4D",
"w  c #7A5E43",
"e  c #6F604E",
"r  c #73624E",
"t  c #7F6548",
"y  c #746552",
"u  c #7A6A57",
"i  c #7C6D5C",
"p  c #7E705E",
"a  c #806649",
"s  c #836A4D",
"d  c #876E52",
"f  c #886F52",
"g  c #806F5C",
"h  c #877053",
"j  c #8A7256",
"k  c #8C765A",
"l  c #8E795C",
"z  c #907A5D",
"x  c #827564",
"c  c #857767",
"v  c #847866",
"b  c #867868",
"n  c #867A69",
"m  c #887A68",
"M  c #897B6B",
"N  c #8A7C6B",
"B  c #927C61",
"V  c #967F63",
"C  c #947F64",
"Z  c #957F64",
"A  c #8D806F",
"S  c #8D816F",
"D  c #8F816E",
"F  c #948064",
"G  c #968064",
"H  c #978065",
"J  c #988167",
"K  c #988367",
"L  c #9A866A",
"P  c #8F8270",
"I  c #918374",
"U  c #918576",
"Y  c #938676",
"T  c #928677",
"R  c #948778",
"E  c #93887B",
"W  c #94897B",
"Q  c #968A7B",
"!  c #968B7B",
"~  c #978B7E",
"^  c #978C7C",
"/  c #988B7E",
"(  c #988E81",
")  c #998F81",
"_  c #9B9082",
"`  c #9C9384",
"'  c #9E9487",
"]  c #9E9488",
"[  c #9F968A",
"{  c #A09589",
"}  c #A1978A",
"|  c #A1978B",
" . c #A1988B",
".. c #A2988C",
/* pixels */
"# $ # + + X X X o X + X X X X X X X X X X X X X X X X % O + $ O ",
"= c g g # 4 4 4 5 2 s + s 2 4 4 4 4 4 6 @ t 2 2 4 2 2 = i i v % ",
", W N M % w a s s s h = l s s s a s a j = h a s a s s = M N W = ",
"1 ( R Y & a d s s s l : z s s s s s s z - l s a s s s = Y Y ( = ",
"1 } Y Y & a k l l l J 6 B k l l z z k l , l k k l k l = P Y ] : ",
"1 .._ _ = s l l l l J 6 Z l l l l l l B ; l k l k k l : ( ( ] : ",
"1 ..} } * s V V H H L 6 H H Z Z H F F F , H F F C C C : ..] .., ",
"1 ..} } & s H H H H L 6 H H J Z H H F H , K B J Z Z Z : ] ] [ 1 ",
", ....] % s z H V J L 5 J V V V V F H K ; J V V Z Z Z : ] ` .., ",
"= ../ ^ % a z z z z J 5 J z z z l l l J ; H l l l l l : / / } : ",
"* ..^ ^ % w z z z z H 5 V B z l z l l V ; F l z l l l = / / } : ",
"& ` D D + a z z z z z 2 V l l l l l l V ; V l l l l l = P M ( 1 ",
"& _ P P + 7 d s s s f 2 f f a s s d s k & k s s s s s = P A ( : ",
"& ^ M M X 6 s s s f f % j s s s s a a k @ f s s s s s & b b E = ",
"% I M z X 7 s s s s s @ f w w 7 w w w j O f s s s t a % b c P & ",
"+ X X X X 7 7 7 7 7 a X 4 % % % # # # w o 7 0 5 2 5 1 $ X X X # ",
"O Q Q Q X X X X X X X X X X A A N I O X X X X X X X X O W W W % ",
"$ F p i X - * = * * * X $ X p X X u X % . 2 - * * - * O i p v $ ",
"$ n p i X - 2 2 5 5 6 X 2 X y p X q X % X 6 2 2 2 4 4 X i i v $ ",
"$ x y u X * , 2 , 2 6 X , X e e X q X $ . 6 2 , , , , . y y i + ",
"$ i r y X * 2 , 2 2 6 X , X 9 3 u 9 X $ X 6 , 2 2 - 2 . e e i o ",
"O y e e . * 2 2 , , 6 X , * X X X X $ , X 5 , , 2 2 , . e e y o ",
"X r 0 0 . * - - - - 6 X - , * * % * - , X 6 - - - - - . e 3 e . ",
". r 0 0 . * - - - , 2 X - 2 - - , , , ; X 5 - - - - - . 3 e e . ",
". r 0 9 . $ , - , : 6 X - ; - , , , , , X 2 - - - - - . 0 e e . ",
". # # O O $ % $ $ $ 6 . $ % % % $ $ $ $ X 6 $ $ $ $ $ o O O O . ",
". v x x x . . . X X X X X X . X . X X X X X X X . . . H p p p . ",
". e e e y . u p i i x c A n A n P b b v v v v p i u . y e e e . ",
". < > : y . 3 3 8 3 8 8 9 9 8 9 8 9 9 9 8 8 8 8 8 8 . r 3 < < . ",
". . . . . . . .           . . . . . . .   . . . . . . . . . . . "
};
