/* XPM */
static char *_d07c798768e421eedb25c6664b5bf6b8IpjROQ8prGxpJrC[] = {
/* columns rows colors chars-per-pixel */
"32 48 105 2 ",
"   c #4F2713",
".  c #4F2913",
"X  c #502713",
"o  c #522A15",
"O  c #552F19",
"+  c #56321B",
"@  c #59351D",
"#  c #5C391F",
"$  c #5B3721",
"%  c #5D3C22",
"&  c #603D25",
"*  c #633E28",
"=  c #5F4024",
"-  c #5F4531",
";  c #614126",
":  c #64442A",
">  c #68442B",
",  c #66492C",
"<  c #694C2E",
"1  c #6B502F",
"2  c #644732",
"3  c #684731",
"4  c #6C4D32",
"5  c #644D39",
"6  c #6D4E39",
"7  c #6E5334",
"8  c #66513D",
"9  c #68533F",
"0  c #715536",
"q  c #725837",
"w  c #745739",
"e  c #755B3B",
"r  c #795F3F",
"t  c #79603F",
"y  c #6A5542",
"u  c #6D5A44",
"i  c #795F40",
"p  c #715E49",
"a  c #795F4C",
"s  c #6F604E",
"d  c #7B6242",
"f  c #74624D",
"g  c #76644F",
"h  c #77644F",
"j  c #766451",
"k  c #756552",
"l  c #786551",
"z  c #7A6651",
"x  c #7A6751",
"c  c #786753",
"v  c #7A6752",
"b  c #796754",
"n  c #7A6754",
"m  c #776854",
"M  c #796955",
"N  c #7B6956",
"B  c #7C6A58",
"V  c #7E6D58",
"C  c #7D6E5C",
"Z  c #7F705F",
"A  c #806546",
"S  c #836849",
"D  c #826949",
"F  c #846B4A",
"G  c #856C4D",
"H  c #866E4E",
"J  c #886F4F",
"K  c #88704F",
"L  c #826F5C",
"P  c #887151",
"I  c #897252",
"U  c #8C7453",
"Y  c #8D7656",
"T  c #82705D",
"R  c #81715E",
"E  c #8F7958",
"W  c #917C5D",
"Q  c #927D5E",
"!  c #837563",
"~  c #857966",
"^  c #897A66",
"/  c #877B6A",
"(  c #8C7C6B",
")  c #8A7D6C",
"_  c #8D7E6C",
"`  c #8E806E",
"'  c #8F816F",
"]  c #8F8270",
"[  c #928574",
"{  c #928675",
"}  c #958875",
"|  c #948877",
" . c #968976",
".. c #958978",
"X. c #998E7D",
"o. c #9A8E7F",
"O. c #9A8F80",
"+. c #9D9283",
"@. c #9F9585",
"#. c #A09686",
"$. c #A09687",
"%. c #A39888",
"&. c #A39889",
"*. c #A49989",
"=. c #A59A8A",
/* pixels */
"4 > > > > > > * > * > & * > * * > * > * & > * * > * * > > > > < ",
"6 $. . .> A S P U U U W E E E E Y U P P K U P J S S S >  . .$.4 ",
"6 *.*.*.& A J U W Y Q Q Q & & & $ & $ Q W E W U K H S * *.*.$.4 ",
"O T x x O 4 4 0 0 w w w w o _ a _ _ o w w w w 0 0 < 4 * x x T o ",
"o L h h o o O o o o O o o o |  .6 [ o o o o o o o o o O a h B o ",
"o B f p O & $ & % % & & % o O.O.+.o.o & & & & % # # # o a a B o ",
"o x a p o ; & # & & & & & o j j h x o $ # % # # # # # o p p B o ",
"o x r r o ; & > ; ; ; : ; ; o o o o & ; ; & ; & & & & o p p n o ",
"X j u p   ; & ; ; : ; ; : : = : : = = = : % & % % % # o u p j X ",
"X j u u o $ ; ; ; ; : ; = = = = % : = ; % ; & $ & # # X u u h X ",
"  f y u . = : : : , , , : , : : 2 < , , < < , , > ; ; X u 9 f . ",
"  h y 9 . = : : , , , , , < < < , < , : < : , < < ; ; X 9 9 f . ",
"  p y 9 X & : , , < , , , < < < 2 < < < < < < > , ; ;   9 9 f X ",
"  p 9 9   ; , < , < < 4 1 < < 7 < 4 < < < < < < < : ;   9 9 p X ",
"  u 9 9   < 0 w q q q w q q w q e q 0 0 q w 0 7 7 4 7   8 8 u X ",
"  y 5 5   < 0 q q q q e w e e q 0 e q q q q q q 0 4 < X 5 8 u . ",
". y 5 5   < 0 e q q q t t q t q t q q r e e e e q 1 4 X 4 5 y   ",
". 5 - - . 7 q e q t q t q q t t q r e e e e e e q 0 7 X 2 2 5   ",
"$ * $ % + 7 e e t t t t t t t t r r r d t t t t r e q o   o     ",
"% ] [ / o # $ # % % = : ; = , , > : : : ; > : ; ; ; # o [ ] ]   ",
"O u u y . . . . . . . . . . . . X X o o o o o o o o o X y u y % ",
"O % $ $ + q 0 q q t e e e e t t d d t t r e e e w 0 0   % & * % ",
"O ! m j . , , , , : , , , , , , , , , , , , , , , , , o m x ! O ",
"O ~ B B . , : , : : : : , = , , , , : , > : , , , : , o N N ~ O ",
"$ _ L L O : : : - - = - = - = - , = - = , = , = : : : o Z T ` + ",
"$ ] ! ~ O & = $ = = = @ % % % % % % % = = % = % $ = = + T ~ ] # ",
"* ..~ / @ = % % = @ = @ # % % % % % % $ % % % % $ % % + / ~ { % ",
": { _ ) # % = = = @ = = % % # % % % % # % % % % ; % % @ ) ` { : ",
">  .[ _ $ % % % = = = = = = = # # # # = $ $ $ $ % $ % $ ` `  .: ",
"> X.] ] % # % $ @ @ + + + + + + + + + + + + @ + + + + $ ` ` X.2 ",
"2 X.[ ] % @ + @ + + + + + + + + + + + + + + + + + O o % [ ` X.: ",
"> X.[ [ % @ # + @ @ + + + + + + + + + + + O O + + + + $ [ [ X.2 ",
"2 X. ...& @ @ @ @ @ @ @ + + + + + + + + + + + + + + + # [ { +.> ",
"3 +.|  .* o o o o X   #     . X . . . . + . . . . X X ; [  .+.2 ",
"2 @.@.O.% w G H S H S o D D D F d K H K . F K F F S H % +.+.@.2 ",
"o ) Z L O 7 r q r q d O t e e e q t t d . t t q e e t O Z Z / % ",
"o / C C O 2 i d e t t o t e e e q e e t . d e e e d e O T V ` % ",
"o ! b B o , e e t t t o t e e e e t e t . d e t e e e + j x Z $ ",
"o C j j o , 0 0 1 7 q o t 7 0 7 7 7 q t + t 7 7 0 7 q o j m Z + ",
"o B s s o , 7 0 7 7 t o e 7 7 7 7 7 7 t . t 7 7 7 0 0 . f f m o ",
"o h s f . , 7 7 7 7 q . q 7 7 7 7 7 7 t . t 7 7 7 7 7 . u u k . ",
"o j u u . = 1 < 1 1 t . q < < < < < < 0 o q 1 1 7 < 7 . u y j . ",
". h y y . = 1 < 1 , q . 1 1 < 1 , < < 7 o q 1 1 < 7 7 . u y j . ",
". $ % @ @ = - = = , t . < , = - , , - < o 7 - = ; - : + @ $ $ . ",
"  / ~ ! ~ . . . . O . O . . . . O . . O o . o   . . . ~ ~ Z / . ",
"  s s s j . N C Z Z Z Z ` ` ` ` ` / / / / ~ ~ Z Z m . m s s s . ",
"  - 5 5 j . 8 8 9 9 8 y y y y y y u y y y y y y y y . f 5 - 8   ",
"      .         . .     . . . .                 . . . .         "
};
