/* XPM */
static char *result[] = {
/* columns rows colors chars-per-pixel */
"8 19 53 1 ",
"  c #4B2511",
". c #4C2611",
"X c #4D2712",
"o c #4E2812",
"O c #4F2913",
"+ c #55321D",
"@ c #56331E",
"# c #55341F",
"$ c #655E55",
"% c #655F55",
"& c #655F56",
"* c #665F56",
"= c #665F57",
"- c #666057",
"; c #666158",
": c #676158",
"> c #676159",
", c #676258",
"< c #676259",
"1 c #686259",
"2 c #686359",
"3 c #68625A",
"4 c #68635A",
"5 c #69635B",
"6 c #6A635B",
"7 c #68645A",
"8 c #6A645B",
"9 c #6A645C",
"0 c #6B645C",
"q c #6B655C",
"w c #6B655D",
"e c #6A665D",
"r c #6B665D",
"t c #6C665D",
"y c #6C665E",
"u c #6D675F",
"i c #6C685E",
"p c #6D695F",
"a c #6E6960",
"s c #6E6A60",
"d c #6E6A61",
"f c #6F6B61",
"g c #76736B",
"h c #7F7C74",
"j c #807D75",
"k c #807E76",
"l c #848179",
"z c #85837B",
"x c #86837B",
"c c #868579",
"v c #94928B",
"b c #9A9891",
"n c #9C9A92",
/* pixels */
"@vccccc#",
"@bcccccc",
"+bcccccc",
"+bcccccc",
"Oxbnnnnv",
"oxfdssss",
"ozaapppp",
"oltiiiuu",
"okertqyy",
"oj9990qw",
"oh744568",
"oh112446",
"og::1243",
"Xg*-:,<3",
".g-*-::>",
".g&**=-;",
"og$&**--",
"og$%**=-",
"oo.     "
};
