/* XPM */
static char *_e883afda79d4eeade2a71328d5bf970OpPqo3P9OfV9mj1H[] = {
/* columns rows colors chars-per-pixel */
"18 64 183 2 ",
"   c #3D1D13",
".  c #27241D",
"X  c #39271D",
"o  c #3E2B1C",
"O  c #292A26",
"+  c #25262A",
"@  c #272B2C",
"#  c #2A2A2A",
"$  c #332920",
"%  c #302A2A",
"&  c #3B2D24",
"*  c #302B31",
"=  c #3B3831",
"-  c #471E0C",
";  c #511805",
":  c #4A1F19",
">  c #4C2307",
",  c #4C240E",
"<  c #4E290E",
"1  c #472710",
"2  c #4D2514",
"3  c #462914",
"4  c #4E2914",
"5  c #45271C",
"6  c #4E261B",
"7  c #442B1E",
"8  c #4E291A",
"9  c #512614",
"0  c #592114",
"q  c #522A14",
"w  c #582915",
"e  c #562319",
"r  c #532B1A",
"t  c #4F3014",
"y  c #4D301D",
"u  c #543115",
"i  c #54331C",
"p  c #4A2721",
"a  c #412E27",
"s  c #4D2C27",
"d  c #4C2F29",
"f  c #532620",
"g  c #572D21",
"h  c #5D2B20",
"j  c #453525",
"k  c #44322B",
"l  c #453828",
"z  c #523120",
"x  c #583225",
"c  c #57342E",
"v  c #55392E",
"b  c #5B3A2B",
"n  c #4B3736",
"m  c #493A35",
"M  c #553C31",
"N  c #5A3930",
"B  c #603C22",
"V  c #56462F",
"C  c #504033",
"Z  c #5F4836",
"A  c #50463D",
"S  c #5A403F",
"D  c #574F38",
"F  c #5D503F",
"G  c #67523F",
"H  c #65593F",
"J  c #584E44",
"K  c #565247",
"L  c #5D5444",
"P  c #5C5945",
"I  c #565349",
"U  c #5C554B",
"Y  c #5E5B4A",
"T  c #5F5553",
"R  c #5D5C53",
"E  c #5C5F5B",
"W  c #604F48",
"Q  c #635545",
"!  c #6B5347",
"~  c #645A46",
"^  c #685841",
"/  c #64564C",
"(  c #6A574C",
")  c #635B4C",
"_  c #6A5C4D",
"`  c #7E5440",
"'  c #635352",
"]  c #6A5753",
"[  c #645D53",
"{  c #6A5C54",
"}  c #6D575A",
"|  c #655C5A",
" . c #6B5D5B",
".. c #725C5D",
"X. c #5E6152",
"o. c #66634E",
"O. c #6A694D",
"+. c #656254",
"@. c #696255",
"#. c #656956",
"$. c #6D6852",
"%. c #65625A",
"&. c #6A645B",
"*. c #67695D",
"=. c #6A6A5D",
"-. c #746756",
";. c #736854",
":. c #73655D",
">. c #79675B",
",. c #726C5E",
"<. c #76725F",
"1. c #7C705A",
"2. c #665B63",
"3. c #6F5C62",
"4. c #6C6461",
"5. c #6D6B63",
"6. c #726461",
"7. c #756C64",
"8. c #796C62",
"9. c #756E69",
"0. c #7A6C69",
"q. c #6D7365",
"w. c #6D776E",
"e. c #6E7C6B",
"r. c #747465",
"t. c #797464",
"y. c #7C7865",
"u. c #74746B",
"i. c #79736C",
"p. c #77786A",
"a. c #7D786E",
"s. c #657D70",
"d. c #7E7771",
"f. c #7D7D74",
"g. c #747B73",
"h. c #845742",
"j. c #84614E",
"k. c #976A53",
"l. c #8D7C6A",
"z. c #837A6B",
"x. c #847F75",
"c. c #8A7E70",
"v. c #7E8073",
"b. c #7F8178",
"n. c #828376",
"m. c #868873",
"M. c #828678",
"N. c #818479",
"B. c #858579",
"V. c #84877C",
"C. c #858479",
"Z. c #88847B",
"A. c #8A837D",
"S. c #8B847E",
"D. c #8B847C",
"F. c #8A827A",
"G. c #868A7C",
"H. c #898A7D",
"J. c #8C887E",
"K. c #8A8F78",
"L. c #90877E",
"P. c #948C7A",
"I. c #96947F",
"U. c #868980",
"Y. c #898B80",
"T. c #8B8C84",
"R. c #8C8C84",
"E. c #908C80",
"W. c #938E8A",
"Q. c #948F8B",
"!. c #918C89",
"~. c #8C9286",
"^. c #959283",
"/. c #919388",
"(. c #939089",
"). c #929489",
"_. c #94948A",
"`. c #95928D",
"'. c #96968F",
"]. c #94918A",
"[. c #99968D",
"{. c #9B988F",
"}. c #A09D94",
/* pixels */
"b b b b b b b b 8 7 o l.J.C.f.G.`.b ",
"m.m.m.m.m.m.m.m.l.P.z.R.B.G.J.n.'.b ",
"M.M.n.b.M.n.M.n.m.J.M.n.b.n.J.D.'.b ",
"U.D.D.D.A.A.A.A.J.N.V.U.T.B.C.F.'.b ",
"].).).)././././.W.!.].].].}.{.{.A.8 ",
"=.=.=.=.*.=.=.=.4.7.7.&.+.5.%.=.F.r ",
"&.&.:.&.&.&.&.&.&.&.&.,.&.&.%.&.x.4 ",
"5.&.=.5.=.=.&.4.4.=.@.&.=.&.&.&.x.3 ",
"*.4.4.&.&.=.*.4.=.&.&.&.&.&.&.&.f.9 ",
"*.&.*.&.4.=.*.&.&.&.&.&.@.&.&.@.f.9 ",
"=.&.&.*.&.&.&.&.&.&.@.&.@.&.@.&.d.4 ",
"&.&.*.4.&.&.&.&.@.&.&.@.&.@.&.{ d.9 ",
"=.&.4.&.&.&.&.&.&.&.@.@.@.&.+.@.i.2 ",
"%.&.&.&.&.%. .&.@.@.&.&.&.{ [ &.u.9 ",
"&.&. .&.{ &.&. .{ %.@.| +. .{ %.u.2 ",
"&.&.&.&.&.&.%.&.+.&.&.[ @.+.@.[ u.9 ",
"| &.X.:.[ X.:.X.&.[ %.[ &.&.+.X.j.i ",
" . .| 6.%.%.} %.| | &.[ | ] { @.= . ",
"q 4 4 w 4 t ; u 4 4 w < 9 r q > + + ",
"U I I L P U d L Y U Y P Y ' L j # % ",
"Q L / W L L 6 ^ ) ~ Q Q ) _ ^ 3 O # ",
"/ / U W / / 6 ( / ) / / ' ) ! 6 @ # ",
"U U U ' U U p / ) / ) ' R Y ( r # * ",
"J / P / K P 8 ^ ) _ ~ ) Y P ^ 4 # # ",
"K U ' P U J r / ) / ) U ] ) ) 8 # # ",
"@.@. .+.&.5., / ) / P ) ) Y ) 4 # # ",
"&.@...o.] [ q Y ) / ) / ( [ ) 4 # # ",
"U A n F j $ ` Y ) / ) Y ) ) ) r # # ",
"=.&.0._ >.&.q Y ) / ) ) ] X.~ 8 # # ",
"@.{ } o.&.9.2 ) ) / ) ) ] ) ) 8 # # ",
"[ 4.2.#.&.9.- [ ' ] ) ) { Y ) 8 # # ",
"&.&.| #.| 5.r ] Y ) ) ) ] o.) 4 # # ",
"+.&.| X.4.&.q ~ / _ o.) _ ) ~ r # # ",
"&.%.4.#.| u.2 ) ' ~ Y Y { +._ 9 # # ",
"[ :.} F 8.6.r ) Y +.+.X.[ X.P 1 # # ",
"%.%.&.O.) r.8 R ( _ ] ( ( ) _ h # # ",
"/ k S C 7 k ` U [ ) Y ) { +.Y 2 # # ",
"=.r.6.O.&.5.r [ +.@.@.=.:.#.o.t # # ",
"{ { } +.4.4.q M N b v v c V Z 0 # # ",
"+.| 4.#.T i.< _ [ ~ o.o._ Y ~ r # # ",
"[ @.4.Y [ 7., [ [ ) { [ ) ' V.2 # # ",
"[ | | X.| d.2 [ { [  .&.~ &.C.9 # O ",
"%.4.| =.T 4.3 #.[ @.{ %.o.r.f.q # # ",
"[ | T +.&.9.q ' [ +. .+.@.p.f.r # # ",
"@.&.6.Q { 8.9 @.@.+.{ [ ,.i.n.9 # # ",
"L J m D X & h.@.@.+. .%.t.u.x.< # # ",
"&.6.7.$.:.7.q ' { +.| 5.y.u.b.9 # # ",
"%.| | )  .7.4 #.[ &.[ p.t.r.n.2 # # ",
"+. .[ +.X.5.z o.@.+.i.p.t.u.f.4 # # ",
"{  .{ @. .7.6 ] @.@.d.u.<.u.b.4 # # ",
"+.2.%.T E 9.  7.&.=.d.q.t.d.b.4 # # ",
"+. .o.;.+.;.r o.=.t.d.r.t.u.b.< # # ",
"#.| [ Y 4.7.5 +.7.p.i.r.y.i.f.4 # # ",
"R 3.:.] 4.4.s 4.p.r.u.u.y.7.N.q # # ",
"i x 1 B 7 y k.1.r.r.i.u.t.i.U.9 # # ",
"r.i.r.<.g.q.r.s.r.r.u.u.<.i.E.9 # # ",
"r.r.r.r.r.r.r.r.w.a.9.t.9.r.^.5 # # ",
"i.i.i.i.i.i.i.i.r.7.t.a.i.7.P.g # # ",
"u.u.p.p.u.u.u.u.p.a.p.u.u.e.K.3 # # ",
"B.C.n.D.B.B.F.B.x.J.R.R.!.~.I.6 # # ",
"{ { { { { { { [ &. .[ | } ] >.e # # ",
"%.%.%.%.%.%.&.*.R +.#.=.:.%.&.p # # ",
"+.[ [ { [ _ [ [ @.O.o.~ ( #.#.j # # ",
"4 r 4 4 4 2 r 9 f 9 2 r e 5 l   # # "
};
