/* XPM */
static char *result[] = {
/* columns rows colors chars-per-pixel */
"8 8 11 1 ",
"  c #4F2913",
". c #553420",
"X c #583824",
"o c #593A26",
"O c #5A3C28",
"+ c #5A3C29",
"@ c #5B3C29",
"# c #5C402D",
"$ c #868579",
"% c #94928A",
"& c #94928B",
/* pixels */
"..Xo++##",
".&$$$$$$",
"o&$$$$$$",
"O&$$$$$$",
"+%$$$$$&",
"@&$$$$$ ",
"@&$$$$$ ",
"@&$$$$$ "
};
