/* XPM */
static char *result[] = {
/* columns rows colors chars-per-pixel */
"8 8 10 1 ",
"  c #4F2913",
". c #5B3C29",
"X c #6B665D",
"o c #6B665E",
"O c #6C665E",
"+ c #6C675E",
"@ c #77726B",
"# c #79756D",
"$ c #868579",
"% c #94928B",
/* pixels */
" %$$$$$.",
"$$$$$$$.",
"$$$$$$$.",
"$$$$$$$.",
"%%%%%%%.",
"XO++++@ ",
"XoO+++# ",
"        "
};
