/* XPM */
static char *result[] = {
/* columns rows colors chars-per-pixel */
"8 8 15 1 ",
"  c #4F2913",
". c #5B3C29",
"X c #6D685F",
"o c #6D695F",
"O c #6E6960",
"+ c #6F6961",
"@ c #6F6A61",
"# c #6F6B61",
"$ c #6F6B62",
"% c #706C62",
"& c #716C63",
"* c #7D7971",
"= c #807C74",
"- c #868579",
"; c #94928B",
/* pixels */
".-----; ",
".-------",
".-------",
".-------",
" ;;;;;;;",
" *&$#@OX",
" =%$@+oX",
"        "
};
