/* XPM */
static char *_4674024128841888885ae43f60be201Oxrs3SRVQPSsrqTu[] = {
/* columns rows colors chars-per-pixel */
"18 64 187 2 ",
"   c #2E2B1C",
".  c #3E331D",
"X  c #371321",
"o  c #1C2F2B",
"O  c #272526",
"+  c #262A25",
"@  c #2C2927",
"#  c #2B262A",
"$  c #262B2C",
"%  c #2B2A2B",
"&  c #392526",
"*  c #312B2F",
"=  c #3B2E2A",
"-  c #293029",
";  c #3E3323",
":  c #2D2B30",
">  c #2B3335",
",  c #4D1602",
"<  c #411E0A",
"1  c #491B0E",
"2  c #4F1F1B",
"3  c #43220B",
"4  c #4A250E",
"5  c #4C2B0E",
"6  c #58210D",
"7  c #462514",
"8  c #4D2613",
"9  c #412812",
"0  c #4D2B13",
"q  c #4C261B",
"w  c #4C2A1A",
"e  c #502614",
"r  c #5A2612",
"t  c #502C15",
"y  c #532319",
"u  c #512D1C",
"i  c #423117",
"p  c #553117",
"a  c #54331D",
"s  c #58361D",
"d  c #58381F",
"f  c #462321",
"g  c #472B2A",
"h  c #552625",
"j  c #532F21",
"k  c #5B2C24",
"l  c #493725",
"z  c #463B27",
"x  c #42362A",
"c  c #4D322B",
"v  c #553423",
"b  c #5A3422",
"n  c #5B3A27",
"m  c #55372A",
"M  c #5A3628",
"N  c #5C392A",
"B  c #463335",
"V  c #4E3030",
"C  c #5D3132",
"Z  c #613528",
"A  c #693B2C",
"S  c #4F4430",
"D  c #4F4539",
"F  c #574032",
"G  c #514539",
"H  c #5C423C",
"J  c #534B38",
"K  c #594D44",
"L  c #565247",
"P  c #5D5445",
"I  c #5B5A45",
"U  c #57534C",
"Y  c #5D544C",
"T  c #575E4E",
"R  c #5B594C",
"E  c #5C5251",
"W  c #5F5B5C",
"Q  c #535D54",
"!  c #635545",
"~  c #625549",
"^  c #625B4C",
"/  c #6A5D4D",
"(  c #635C42",
")  c #625451",
"_  c #6A5653",
"`  c #645E54",
"'  c #6A5E55",
"]  c #665D5A",
"[  c #6A5E5A",
"{  c #725655",
"}  c #735D53",
"|  c #755D5D",
" . c #5A6154",
".. c #576158",
"X. c #5E6159",
"o. c #63624F",
"O. c #6D6348",
"+. c #71684B",
"@. c #656254",
"#. c #6B6455",
"$. c #656955",
"%. c #6E6B55",
"&. c #65625B",
"*. c #6B635B",
"=. c #676858",
"-. c #6C6A5D",
";. c #706053",
":. c #716C55",
">. c #71645B",
",. c #726C5D",
"<. c #7B6E59",
"1. c #6C7055",
"2. c #6D745E",
"3. c #74785F",
"4. c #645E62",
"5. c #656463",
"6. c #6C6462",
"7. c #676862",
"8. c #6D6B61",
"9. c #6F6969",
"0. c #706663",
"q. c #7D6362",
"w. c #726C62",
"e. c #7A6F64",
"r. c #776468",
"t. c #746D6B",
"y. c #796B6A",
"u. c #6E7264",
"i. c #6B7A65",
"p. c #6E726A",
"a. c #647263",
"s. c #747264",
"d. c #7A7264",
"f. c #737C65",
"g. c #7D7964",
"h. c #76756A",
"j. c #7A756B",
"k. c #76796B",
"l. c #7B7A6C",
"z. c #767570",
"x. c #7B7672",
"c. c #7C7B73",
"v. c #835F47",
"b. c #8A6650",
"n. c #916451",
"m. c #88715F",
"M. c #846F6E",
"N. c #837C6A",
"B. c #837B71",
"V. c #857373",
"C. c #72816E",
"Z. c #7E866F",
"A. c #7C8373",
"S. c #848474",
"D. c #898577",
"F. c #828973",
"G. c #878579",
"H. c #858779",
"J. c #86837D",
"K. c #85837C",
"L. c #888579",
"P. c #88837D",
"I. c #8A837D",
"U. c #89847E",
"Y. c #8A857F",
"T. c #89867B",
"R. c #84887A",
"E. c #868D7B",
"W. c #8A887C",
"Q. c #928C7C",
"!. c #868581",
"~. c #8A8682",
"^. c #868981",
"/. c #898981",
"(. c #918C83",
"). c #938E8A",
"_. c #8F9283",
"`. c #8F9287",
"'. c #8F9186",
"]. c #909286",
"[. c #909388",
"{. c #939389",
"}. c #979B8C",
"|. c #9B9B8E",
" X c #9C9491",
".X c #9F9B98",
"XX c #9D9F9A",
/* pixels */
"b _.J.D.F.D.L.l a v n N N N N M N N ",
"v |.P.S.H.S.L.S.Z.F.F.F.F.F.F.F.F.F.",
"u }.K.L.^.P.B.Q.G.Y.J.J.G.S.S.L.J.R.",
"n _.Y.J.A./.^.S.I.I.L.I.K.I.Y.Y.G.Y.",
"e S. X|.}..XXX].`.`.`.[.[.{.[.[.`.].",
"t S.x.*.8.6.7.w.w.0.,.w.0.w.0.,.u.s.",
"e S.6.*.s.0.&.-.-.8.8.8.u.8.-.8.>.0.",
"8 L.0.>.=.0.8.%.-.-.*.*.-.,.0.8.8.8.",
"t N.0.*.=.-.*.-.6.-.,.6.*.8.0.,.-.8.",
"e c.6.>.@.6.*.*.6.*.6.-.8.>.6.*.6.8.",
"e c.6.*.@.*.&.*.*.*.*.*.*.8.*.*.*.-.",
"e l.[ *.@.*.&.*.*.*.*.*.*.*.*.*.&.*.",
"8 k.[ #.@.*.] *.*.*.*.*.*.*.*.*.*.*.",
"8 k.] ' @.#.] @.&.*.[ &.*.*.*.*.*.&.",
"8 h.] ' @.&.] *.' &.*.*.' *.&.*.*.*.",
"8 h.] ' @.#.W @.' *.@.] *.&.*.] *.*.",
". q.( 6.T ` 6.@.*.T =.} *...[ @.@.&.",
"  B O.` @.,.~ ` [ X.' | ] 7.[ [ [ [ ",
"& X e f 7 y 2 w 8 5 5 , 8 w 4 4 8 4 ",
"o > 9 f.:.#.,.@.*.$.$.c R U R Y Y Y ",
"$ $ 8 N.%.0.8.-.,.-.:.q I P P ! P P ",
"% O r C.>.7.7.*.*.w.%.h Y _ Y ) ) ~ ",
"* % 6 k.*.7.p.%.5.-.=.h L _ U E Y E ",
"% + r k.=.p.=.+.-.%.%.y I ! I ~ ~ ~ ",
"$ @ t x.-.*.-.-.>.-.%.u E Y ` E Y U ",
"$ @ t x.8.%.-.-.*.s.=.4 y.#.^ [ ' ' ",
"- @ t x.-.*.-.8.*.s.#.p 0.;.~ ' ` ` ",
"$ @ t c.-.-.,.-.w.*.%.v.= ; ; K H H ",
"$ @ t c.-.-.-.8.[ 8.,.5 t.<.d.>.-.-.",
"$ @ t c.-.-.,.8.s.7.=.a 6./ ' ' ' @.",
"$ @ p x.-.-.,.,.0.8.,.8 t.' &.7.*.[ ",
"$ @ p x.-.,.8.8.0.8.w.a t.' &.&.] &.",
"+ # a h.,.w.,.,.:.s.,.3 x.@.&.5.*.&.",
"+ # a j.,.-.8.-.t.7.8.a 6./ #.` ] *.",
"- % a h.-.-.9.-.*.8.,.4 t.^ @.$.#.[ ",
"@ % a h.,.s.t.8.1.2.%.3 t.>.*.[ @.' ",
"+ # a j.,.w.w.%.j.7.d.n.g u u k K Y ",
"- % a j.e.j.B.N.j.k.l.0 7.@.2.*.*.*.",
"% # 8 ' J D G S A w m r r.] ] 4.@.' ",
"+ * n c.<.e.<.<.2.i.-.0 h.@.` [ ] ] ",
"% @ v K.8.-.s.w.8.u.s.t t.O.R #.[ ] ",
"% % n B.s.s.8.d.w.s.s.3 5.*.*.] &.&.",
"% # s K.8.s.s.s.d.=.w.a t.&.W W ' ] ",
"$ % s K.s.s.w.s.s.s.d.u 6.' @.*.] ' ",
"$ @ v !.d.s.s.s.s.p.w.0 y./ ! ' @.@.",
": @ v B.s.s.s.s.j.7.j.b.= l l N H H ",
": # s K.d.s.s.s.s.h.j.0 0.;.*.>.=.=.",
"$ @ s K.h.s.s.j.d.s.d.w t.@.&.5.] &.",
"% % s K.s.h.h.h.x.e.d.y 8.#.] { ] ] ",
"% % s !.j.f.s.j.p.s.s.a a.@...*.@.' ",
"$ @ s !.s.h.h.h.j.g.w.1 s.@.Q &.] ] ",
"% % a !.h.h.j.h.u.f.s.Z >.} *._ @.] ",
"$ @ b ^.h.k.h.j.j.l.j.3 0.@.*. .] ] ",
"% # s !.k.j.j.j.M.g.d.w >.P =.o.#.@.",
"% @ s ^.j.k.j.l.x.i.l.M.V m C u p p ",
"# @ v ^.k.k.j.j.V.i.s.d.j.3.d.g.h.h.",
"@ % n /.h.x.c.k.k.h.j.h.k.h.s.k.s.h.",
"% % a /.j.j.h.j.j.j.k.j.d.j.d.j.x.j.",
"% % v }.N.N.w.g.j.k.z.z.z.h.z.h.h.h.",
"$ % n /.W.~.'._.Y.J.P.P.P.J.P.Y.D.S.",
"@ # u 9.#.4.4.W @./ / / / / / @.' ' ",
"+ @ 7 w.' 6.] &.&.&.&.&.&.&.&.&.&.&.",
"$ : w ,.( } } / ' ] ' ] ` ' ' ] ' ' ",
"$ % < x 9 w u 5 e 0 e 0 0 t e e t t "
};
