/* XPM */
static char *result[] = {
/* columns rows colors chars-per-pixel */
"8 19 35 1 ",
"  c #4E2812",
". c #4F2913",
"X c #5B3C29",
"o c #655E55",
"O c #655F55",
"+ c #665F56",
"@ c #666057",
"# c #676057",
"$ c #676157",
"% c #676158",
"& c #686158",
"* c #686159",
"= c #686259",
"- c #686359",
"; c #68635A",
": c #69635A",
"> c #69635B",
", c #69645A",
"< c #6A645B",
"1 c #6A655B",
"2 c #6B645C",
"3 c #6A655C",
"4 c #6B655D",
"5 c #6A665C",
"6 c #6B665C",
"7 c #6B665D",
"8 c #726F67",
"9 c #76736B",
"0 c #79766E",
"q c #7A776F",
"w c #7E7B73",
"e c #86837B",
"r c #868579",
"t c #94928B",
"y c #99978F",
/* pixels */
".rrrrrtX",
"rrrrrrtX",
"rrrrrryX",
"rrrrrryX",
"ttyyyye.",
"777533e.",
"774333e.",
"6661<<w.",
"2<<<<<w.",
",>>>>;w.",
">>;---q.",
">:--==q.",
"=***&&0.",
"**&&%$9.",
"*&$$@@9.",
"##@+++8.",
"#@@+++8.",
"++OOoo9 ",
"......  "
};
