/* XPM */
static char *_46b7605629f4bc4d3a006347d8f1773zVz7Koos2tgCcoux[] = {
/* columns rows colors chars-per-pixel */
"32 64 153 2 ",
"   c #431F09",
".  c #54210E",
"X  c #512A0D",
"o  c #4C2517",
"O  c #4F2916",
"+  c #4E281A",
"@  c #542912",
"#  c #512A18",
"$  c #5A2C1C",
"%  c #44321C",
"&  c #553117",
"*  c #56321C",
"=  c #5A331A",
"-  c #552E29",
";  c #443224",
":  c #4E3424",
">  c #443029",
",  c #4C3628",
"<  c #4C3A2C",
"1  c #543324",
"2  c #5A3523",
"3  c #543A26",
"4  c #54362C",
"5  c #5D362F",
"6  c #533B2B",
"7  c #59392A",
"8  c #4D3E37",
"9  c #533D33",
"0  c #5B3D33",
"q  c #503E3E",
"w  c #5A3E3A",
"e  c #653D24",
"r  c #603B28",
"t  c #603B35",
"y  c #4D402F",
"u  c #59402C",
"i  c #4D4236",
"p  c #4F493B",
"a  c #544335",
"s  c #5B4434",
"d  c #53453C",
"f  c #5A443B",
"g  c #534A3C",
"h  c #5C4B3D",
"j  c #6F452D",
"k  c #624134",
"l  c #61413F",
"z  c #744F3C",
"x  c #64533F",
"c  c #5E4641",
"v  c #554B42",
"b  c #5A4E44",
"n  c #544F49",
"m  c #594E48",
"M  c #565747",
"N  c #5A5145",
"B  c #57534A",
"V  c #5C524A",
"C  c #5D594C",
"Z  c #5E5D54",
"A  c #624C45",
"S  c #644C49",
"D  c #635344",
"F  c #645947",
"G  c #63544B",
"H  c #645C4C",
"J  c #6A5C4D",
"K  c #625656",
"L  c #685652",
"P  c #655D54",
"I  c #695E55",
"U  c #665D59",
"Y  c #6A5E5A",
"T  c #705D56",
"R  c #5E6053",
"E  c #5C6258",
"W  c #62614F",
"Q  c #68614F",
"!  c #656155",
"~  c #6A6156",
"^  c #696956",
"/  c #66625A",
"(  c #6A645B",
")  c #646A5C",
"_  c #6B695E",
"`  c #726655",
"'  c #71665D",
"]  c #726A5D",
"[  c #796C5C",
"{  c #6E6361",
"}  c #666E61",
"|  c #6D6960",
" . c #706562",
".. c #736B62",
"X. c #746F69",
"o. c #6F7267",
"O. c #747465",
"+. c #797366",
"@. c #74746B",
"#. c #79736C",
"$. c #77786A",
"%. c #7E7B72",
"&. c #857D6D",
"*. c #867E73",
"=. c #7E8577",
"-. c #7E8478",
";. c #83806D",
":. c #868675",
">. c #8B8270",
",. c #868873",
"<. c #8B8877",
"1. c #85827B",
"2. c #828678",
"3. c #82857A",
"4. c #86867A",
"5. c #87827C",
"6. c #87847D",
"7. c #85867E",
"8. c #868579",
"9. c #89877B",
"0. c #8B827D",
"q. c #8C837E",
"w. c #89867C",
"e. c #81897A",
"r. c #85887D",
"t. c #85887F",
"y. c #8A887B",
"u. c #8A8C7F",
"i. c #8B887F",
"p. c #938578",
"a. c #918A7A",
"s. c #968F7D",
"d. c #858680",
"f. c #878880",
"g. c #858A83",
"h. c #8F8B82",
"j. c #8C8D85",
"k. c #918E85",
"l. c #928E85",
"z. c #938F86",
"x. c #968F87",
"c. c #909088",
"v. c #939389",
"b. c #929288",
"n. c #97948D",
"m. c #99928A",
"M. c #98958C",
"N. c #9E9590",
"B. c #989890",
"V. c #9C9990",
"C. c #9F9890",
"Z. c #A59B8F",
"A. c #A19A94",
/* pixels */
"7 7 7 7 7 7 7 7 7 7 3 6 6 3 k 2 e * u 6 u u 3 3 6 7 7 7 7 7 7 7 ",
":.:.:.:.:.:.:.:.>.a.<.;.>.s.&.y 3 s [ ` ~ ` >.p.,.,.,.,.,.,.,.,.",
"3.3.3.3.3.3.1.1.t.-.-.3.=.=.u.8.x ] O.| 4.y.y.1.3.8.2.2.3.2.1.:.",
"0.0.0.0.0.0.0.d.7.-.7.j.r.1.1.5.N P / g.r.3.3.d.q.0.0.0.q.0.0.0.",
"c.c.c.c.c.c.z.z.m.z.l.h.z.C.A.N.D Z.C.M.c.M.l.n.v.v.v.v.v.v.v.v.",
"_ _ _ _ _ } _ } _ ) _ | _ _ ( } s J / O.O.~ ..' _ _ _ / _ _ _ _ ",
"_ { _ { { ' { _ _ _ _ ~ _ @.| / s ' _ ( .._ ( _ _ _ _ ' _ _ ' ( ",
"| _ | _ _ } _ | ' ' ..' _ { Y ..a ` _ } / _  .} _ _ _ _ _ _ _ _ ",
"_ { _ } { _ ' _ _ _ _ _ _ { / } 0 _ ) { | _ ` _ _ ( _ / ( _ _ ( ",
"_ _ _ { _ _ _ _ ( _ { _ _ ( _ { s ^ / { _ _ ~ _ / _ _ { _ ( ( _ ",
"_ ( _ ( _ ( / _ _ _ ( ( _ ( _ _ s _ / { / _ _ _ { _ _ ( ( _ _ _ ",
"( ( ( ( ( _ ( ( ( ( ( _ / _ ( ( 0 ^ /  ._ / ~ / _ / _ / ( ( / ( ",
"_ _ ( ( _ / _ _ _ _ / _ _ _ ( ( 2 ~ / Y _ / ( / / / _ / _ / _ ( ",
"/ / ( / / / / _ ( / / / / / ( / 1 ! ) ( / ( ( / / _ / ( / / / _ ",
"_ / / / / / / / ( / ( / / / / / 1 W ( Y ( / Y ! / / / ( / / / / ",
"/ / / / ( / / ! ( / / / ( / _ / 2 ! / Y ( / ( _ / / / / / / ( ( ",
"U / / / / ( U / / U / ( / U Y / , J ~ ! P _ ! ! / U / ( / U Y / ",
"Y ( Y ( Y ~ Y ( Y ( ( Y ~ ( ( ( > L  . .U Y Y U Y ( ( Y ~ ( ( Y ",
"X X X @ X @ X X X X X X X X X @ j =   O # # @ @ X X X X X @ X X ",
"V V m B B m V V B V V V m V B m C B B B B C b ; B m V V m B B V ",
"F V V V V V V G V G V V F V V V g N G b g N x * V V V F V V V D ",
"N N V N N N N N N b N N b N N N W b b L H N h 3 V N N N N V N N ",
"V V V V D V V V V V V V V V V V v V S m B B F < V V V G V V V V ",
"V V A V V V V V G b V D V V G V N F G b C M N , A V V m V D V V ",
"V V N V N N V N V V V V V V V V N V N Z b b D , B b V V V V V N ",
"I I Y ! Y Y ( P Y ! P ~ P Y ~ P ! ( P / ( ~ T a _ ~ ( P P P P ( ",
"Y ( ~ ~ ( ~ Y ~ ~ Y ( ~ ~ ~ ~ ( Y _ P ! I I J < L I Y ~ ( ~ ~ ~ ",
"N B m N B N d b V V V V V V V B A S S c f 0 t 1 8 d b V V V V B ",
"| .._ ' _ ` G _ _ _ _  .] | ' { ) ) ) ) ^ ! ^ ^ ( '  .' ( ' { ..",
"( ( Y Y I Y b ~ ( Y U ( Y ( / ( ( ( Y Y _ ! Y ( T ( ( Y Y U ( ( ",
"U ( P ( I ~ v ~ P P U P P P ( P Y Y Y Y ( ( P U Y ( ( / / ( P P ",
"/ / / ( I ~ g ~ ( ( ( ( ( / U ( P ( ( P U ( / / / / P ! ! Y ( / ",
"Y ( ( ( Y ' v ' U U / ( ( U P Y / _ P P / / Z / / U ( U / / ( / ",
"U / ~ / P / f ~ ( ( ( ~ U ( ( _ U U { U  .U { _ ! ! U ! / / / ! ",
"/ ! ! / ~ I d Q Y ~ Y I P Y ~ Y Y Y Y ' L Y L P { Y Y Y Y Y P Y ",
") ! ! ^ ! H g F L P ( ~ ~ ( ~ I ^ Z ! R ) ^ _ ^ ! ( ^ ^ / / ^ ! ",
"f l l t 0 0 - 5 g N C V m V V v f 0 0 0 0 4 0 0 6 9 a f f f h h ",
"_ / _ ! ~ / Y ~ / / ( ( ( _ ( ( _ ] ! _ h x h h H P ` _ ~ ( ^ ] ",
"R P ! Z ! ) P ) P / Y P P P ( / ! P ~ H ~ b N A L I ~ Y Y I P P ",
"~ P I Y U U U Y U U P Y / P K U U / K _ ( Y b b U P / ! E U ! / ",
"P Y U P ( P Y Y U P P Y Y P U P ~ P U / / P ' f K P P U U P / / ",
"/ P P / U P U P U U / U P ! / U E R Z ! E Z _ m ( / ( ( U P U Z ",
"P P ! / P / / ! / / Y / / / Y / Y ( Y Y I I Y w K P K P ! ! / U ",
"! P / U P ~ ! P U U U U U U U U U Z U U Y ~ I a ( ~ ! Y U U U P ",
"Y U ( I P ~ I Y ! Y P ! ! ~ Y / ! P I I H F D 6 L P ~ Y Y P P P ",
"m b G v v v a b b N N b b v b b b A A c 9 8 3 1 < 9 g b h h b b ",
".._ .._ ' ` G ' '  ._ ' ] _ ' ' ) _ _ _ ! _ / ] ( ( | ..] ] { _ ",
"P P / L ( P g I ! U ! U ! U ! ! / P L ( Y ( U ~ ( U U P U U ! U ",
"Y U U { ( K B L ! U U U U U ! U P P P ! / ! ! ! U U P U P U U P ",
"P P P Z I H V P ~ ! ! ! ! ! ! ~ ( ( U Z P ~ U P ! ! ~ ! ! ! ! ~ ",
"P ( / P U _ b Y U U P U P U U P Z K Y { Y K U ( U U U U U U U U ",
"! R ! R H ~ i Y ! ! ! ! ! / ! ! ^ W Z ! ! ! W ! ! ! ! ! ! ! ! P ",
"( Y U Y Y Y q T Y U Y Y U U U U K ! / U Y / ( U U U U Y U U I Y ",
"! K P ! P P a I P Y P ! U ~ U Y _ ! P / U Z Z / P U ! ~ U Y Y ! ",
"& * * & * = X = & & & & & & # & z 7 + * 1 2 * * & & & & # & & & ",
"@.#.#.o.@.@.@.$.@.#.@.@.@.@.@.@.g _ &.+.] +.+.+.@.@.@.@.@.@.@.@.",
"O.O.O.O.O.O.O.O.O.O.O.O.O.O.O.O.V +.$.o.} O.@.@.O.O.O.O.O.O.O.O.",
"#.#.#.#.#.#.#.#.#.#.#.#.#.#.#.#.D [ $.*.+.#.#.$.#.#.#.#.#.#.#.#.",
"@.@.$.#.@.@.@.@.@.@.@.@.@.@.@.@.F +.o.@.O.$.@.o.@.@.@.@.@.@.#.@.",
"w.1.8.8.8.w.8.8.:.1.8.8.w.8.8.w.G *.u.d.*.8.q.r.8.w.8.:.w.8.8.8.",
"I I I I I I I I I I I I Y Y I I A T Y ( Y Y I ( Y I I I I I I I ",
"/ / / / / / / / ( / / / ! / / ! F ~ H R ! / P P / / / U / / / / ",
"P H H P H ! I H H P H P P H P H % D ^ ^ H Q Q ! W P H I H ! P H ",
"# O O # O O O O O # O O # O # # . $ o + O @ o # # O O O O O # O "
};
