/* XPM */
static char *result[] = {
/* columns rows colors chars-per-pixel */
"32 19 83 1 ",
"  c #4B2511",
". c #4C2611",
"X c #4D2712",
"o c #4D2713",
"O c #4E2812",
"+ c #4F2913",
"@ c #4F2B17",
"# c #512E1A",
"$ c #53301A",
"% c #53321E",
"& c #54321D",
"* c #543421",
"= c #593A26",
"- c #593B27",
"; c #5A3B27",
": c #5A402E",
"> c #5B4130",
", c #5B4230",
"< c #5B4231",
"1 c #5C4332",
"2 c #644E3C",
"3 c #675341",
"4 c #675443",
"5 c #695645",
"6 c #666058",
"7 c #676058",
"8 c #676158",
"9 c #676159",
"0 c #676258",
"q c #676259",
"w c #686159",
"e c #68625A",
"r c #69625A",
"t c #68635A",
"y c #69635A",
"u c #69635B",
"i c #69645B",
"p c #69645C",
"a c #6A645C",
"s c #6A655C",
"d c #6A655D",
"f c #6B655D",
"g c #6A665D",
"h c #6B665D",
"j c #6B675D",
"k c #6B665E",
"l c #6C665E",
"z c #6C675E",
"x c #6D675F",
"c c #6C685E",
"v c #6C685F",
"b c #6D685F",
"n c #6D695F",
"m c #6D6A5F",
"M c #6D6960",
"N c #6E6860",
"B c #6E6960",
"V c #6D6A60",
"C c #6E6A60",
"Z c #6E6A61",
"A c #6F6A61",
"S c #6F6B61",
"D c #6F6A62",
"F c #6F6C61",
"G c #6F6C62",
"H c #706A62",
"J c #706B62",
"K c #706B63",
"L c #716B63",
"P c #706C62",
"I c #706D62",
"U c #716C63",
"Y c #868579",
"T c #908E86",
"R c #918F87",
"E c #918F88",
"W c #929088",
"Q c #939189",
"! c #93918A",
"~ c #93928A",
"^ c #94928A",
"/ c #94928B",
"( c #99978F",
/* pixels */
"$&-===;;;;;;;;;;;;;;;;;;;;;;;;;;",
"YYYYYYYYYYYYY2YYYYYYYYYYYYYYYYYY",
"YYYYYYYYYYYYY3YYYYYYYYYYYYYYYYYY",
"YYYYYYYYYYYYY5YYYYYYYYYYYYYYYYYY",
"/~!!Q!!QQQ^((4(((/WTTTREEEEEEEEE",
"DJJHKLUUUIUUP,JJJJJJSACCnnnbbbbb",
"VCCBZAAASASFG1SSSSSAACBnbbbbbbbb",
"bbbbnBmCCZAAA1AAACCBBBnnbbbbbbbb",
"zxxxxbbnMBZAC<BCBBBBBBnbbccccccc",
"hhzlllzxxbbbb>nBBBMNvcczzzzzzzzz",
"sdgdffdfkkkll:zbbxzzcczzjhhhhhhh",
"iapaipaaaafff*hllllhhhhsssssssss",
"riiiiuiiiiiii%iaasssssssssssssss",
"rryuuuuuuuiii%iiiiiiiiiiiiaiiiii",
"wweeeeeeeeeet#eeeetuuuuuuuuuuuuu",
"880qqqq999999@99q9qqqqq9qqqqqqqe",
"6789999999999o999999999999999999",
"6789999999999+999999999999999999",
"           .XO++++++++++++++++++"
};
