/* XPM */
static char *result[] = {
/* columns rows colors chars-per-pixel */
"32 8 34 1 ",
"  c #4F2913",
". c #5A3B27",
"X c #5A3C28",
"o c #5A3D29",
"O c #5B3D29",
"+ c #5C402C",
"@ c #5D402C",
"# c #5D412E",
"$ c #5E422F",
"% c #5E4330",
"& c #5F4E3F",
"* c #66513F",
"= c #5F4F40",
"- c #5F4F41",
"; c #5F5041",
": c #675240",
"> c #635549",
", c #63564A",
"< c #64574B",
"1 c #64584D",
"2 c #685F56",
"3 c #686057",
"4 c #676159",
"5 c #686158",
"6 c #696158",
"7 c #686159",
"8 c #686258",
"9 c #696258",
"0 c #686259",
"q c #696259",
"w c #696359",
"e c #68625A",
"r c #868579",
"t c #94928B",
/* pixels */
"$%%%%####@O.X:..................",
"rrrrrrrrrrrrr:rrrrrrrrrrrrrrrrrr",
"rrrrrrrrrrrrr*rrrrrrrrrrrrrrrrrr",
"rrrrrrrrrrrrr+rrrrrrrrrrrrrrrrrr",
"tttttttttttttotttttttttttttttttt",
"=;>,<1235700w qq0000eeee07478688",
"&->,<1235000w qq0000eeeee7778698",
"                                "
};
