/* XPM */
static char *result[] = {
/* columns rows colors chars-per-pixel */
"8 32 10 1 ",
"  c #4F2913",
". c #56341E",
"X c #56341F",
"o c #573521",
"O c #583723",
"+ c #583724",
"@ c #5B3C29",
"# c #654935",
"$ c #868579",
"% c #94928B",
/* pixels */
"@%$$$$$ ",
"@%$$$$$X",
"@%%%%%%X",
"@o####.X",
"@%$$$$$X",
"@%$$$$$X",
"@%$$$$$X",
"@%$$$$$X",
"@%$$$$$X",
"@%$$$$$X",
"@%$$$$$X",
"@%$$$$$X",
"@%$$$$$X",
"@%$$$$$X",
"@%$$$$$X",
"@%$$$$$X",
"O%$$$$$X",
"O%$$$$$X",
"O%%%%%%X",
"+o####.X",
"+%$$$$$X",
"+%$$$$$X",
"+%$$$$$X",
"+%$$$$$X",
"+%$$$$$X",
"+%$$$$$X",
"+%$$$$$X",
"+%$$$$$X",
"+%$$$$$X",
"+%$$$$$X",
"+%$$$$$X",
"+%$$$$$X"
};
