/* XPM */
static char *_bd6cf4d4f534c91dcaf216ee5254728t9lSW421xau5LKUo[] = {
/* columns rows colors chars-per-pixel */
"32 32 249 2 ",
"   c None",
".  c #733D00",
"X  c #753E00",
"o  c #754002",
"O  c #784001",
"+  c #7F4402",
"@  c #794504",
"#  c #7A4707",
"$  c #7C4803",
"%  c #7C4805",
"&  c #7F4905",
"*  c #804503",
"=  c #814704",
"-  c #804707",
";  c #864902",
":  c #814804",
">  c #814807",
",  c #884A05",
"<  c #884F04",
"1  c #8D4D04",
"2  c #844B08",
"3  c #884F0A",
"4  c #8C4F08",
"5  c #8F4F09",
"6  c #86510A",
"7  c #8F540B",
"8  c #89510C",
"9  c #8B550C",
"0  c #935203",
"q  c #90540B",
"w  c #95540A",
"e  c #90560C",
"r  c #98560B",
"t  c #99540C",
"y  c #9B550D",
"u  c #9A570E",
"i  c #975B0D",
"p  c #945B0F",
"a  c #9C5B0A",
"s  c #9A590C",
"d  c #9E580D",
"f  c #995C0E",
"g  c #9F5D0E",
"h  c #8D5611",
"j  c #955E15",
"k  c #9B5D11",
"l  c #9D5914",
"z  c #A15C07",
"x  c #A05E0F",
"c  c #A45D10",
"v  c #9F6211",
"b  c #9F6414",
"n  c #9B681D",
"m  c #A9620B",
"M  c #AB600D",
"N  c #A66113",
"B  c #A86211",
"V  c #A96116",
"C  c #AA6717",
"Z  c #A76914",
"A  c #A96C17",
"S  c #A9651A",
"D  c #A46B19",
"F  c #A36D1D",
"G  c #B26913",
"H  c #B56A16",
"J  c #B06E15",
"K  c #B06C18",
"L  c #B46D1C",
"P  c #B8711B",
"I  c #BB741F",
"U  c #B16F20",
"Y  c #A57021",
"T  c #AC7720",
"R  c #A97929",
"E  c #B37626",
"W  c #BC7725",
"Q  c #B57C20",
"!  c #BF7F29",
"~  c #BE7D2B",
"^  c #C07920",
"/  c #C17A20",
"(  c #B48224",
")  c #BC8124",
"_  c #BE8524",
"`  c #BE8827",
"'  c #B1852F",
"]  c #BC912F",
"[  c #AF8130",
"{  c #B28230",
"}  c #B68830",
"|  c #B68D33",
" . c #B68B37",
".. c #B78E37",
"X. c #BE9232",
"o. c #BD9234",
"O. c #BD913C",
"+. c #BE943D",
"@. c #BF983C",
"#. c #C38823",
"$. c #C18C27",
"%. c #C18D2B",
"&. c #C19232",
"*. c #CB9F37",
"=. c #C2973D",
"-. c #C39938",
";. c #C19A3A",
":. c #C19B3D",
">. c #C49E3F",
",. c #C99D38",
"<. c #C89F3D",
"1. c #C5A13F",
"2. c #C7A03E",
"3. c #CDA03B",
"4. c #CDA13B",
"5. c #C9A13D",
"6. c #D1AC3D",
"7. c #C19941",
"8. c #C19B40",
"9. c #C49D41",
"0. c #C49F43",
"q. c #C59E44",
"w. c #C59F45",
"e. c #C5A041",
"r. c #C8A345",
"t. c #C9A644",
"y. c #CAA449",
"u. c #CDA74A",
"i. c #CFAB49",
"p. c #CDAA4A",
"a. c #CCA84C",
"s. c #CFAA4D",
"d. c #D0AD4F",
"f. c #CFB04F",
"g. c #D0B148",
"h. c #D1B14F",
"j. c #D4B34F",
"k. c #C9A551",
"l. c #CEAC54",
"z. c #D3B253",
"x. c #D4B150",
"c. c #D4B350",
"v. c #D4B551",
"b. c #D5B453",
"n. c #D1B154",
"m. c #D6B357",
"M. c #D7B755",
"N. c #D9B957",
"B. c #DABC56",
"V. c #D5B258",
"C. c #D5B259",
"Z. c #D6B559",
"A. c #D7B55B",
"S. c #D7B55C",
"D. c #D8B758",
"F. c #D8B858",
"G. c #D8BB5B",
"H. c #DABD5B",
"J. c #DDBF5B",
"K. c #D8B85E",
"L. c #DBB95F",
"P. c #DBBE5C",
"I. c #DBBE5E",
"U. c #D9B761",
"Y. c #D9B861",
"T. c #DAB963",
"R. c #DABB63",
"E. c #DCBD63",
"W. c #DCBC64",
"Q. c #DCBD67",
"!. c #DDBF68",
"~. c #DDC256",
"^. c #E0C45E",
"/. c #DDC062",
"(. c #DFC363",
"). c #DBC164",
"_. c #DDC465",
"`. c #DDC06B",
"'. c #DFC36A",
"]. c #E0C160",
"[. c #E0C267",
"{. c #E3CB63",
"}. c #E4C963",
"|. c #E1C369",
" X c #E0C26B",
".X c #E3C46A",
"XX c #E1C46F",
"oX c #E3CB6A",
"OX c #E1C86D",
"+X c #E3C96D",
"@X c #E3C96E",
"#X c #E3CA6F",
"$X c #E3C973",
"%X c #E5CA71",
"&X c #E4C973",
"*X c #E6CB73",
"=X c #E5CF71",
"-X c #E6CA75",
";X c #E5CC74",
":X c #E4CD76",
">X c #E4C978",
",X c #E6CD7A",
"<X c #E4CE7A",
"1X c #E9D078",
"2X c #E9D07A",
"3X c #EBD67B",
"4X c #ECD579",
"5X c #ECD47B",
"6X c #EBD47D",
"7X c #ECD47D",
"8X c #ECD57D",
"9X c #E7CF80",
"0X c #E7CF81",
"qX c #E7D181",
"wX c #E8D082",
"eX c #E8D382",
"rX c #E9D383",
"tX c #ECD581",
"yX c #EDD581",
"uX c #EDD683",
"iX c #ECD384",
"pX c #E8D585",
"aX c #EBD684",
"sX c #E9D486",
"dX c #EED883",
"fX c #ECD885",
"gX c #EED986",
"hX c #EBD689",
"jX c #EBD789",
"kX c #ECD78D",
"lX c #EDD78E",
"zX c #ECD88C",
"xX c #EDD88F",
"cX c #F0DB8E",
"vX c #EEDB91",
"bX c #EDD992",
"nX c #EFDB93",
"mX c #EFDC90",
"MX c #EEDC91",
"NX c #EFDB94",
"BX c #EFDC97",
"VX c #F0DB90",
"CX c #F0DF93",
"ZX c #F0DF94",
"AX c #F0DF97",
"SX c #F0DF98",
"DX c #F0DF9B",
"FX c #F0E19C",
"GX c white",
/* pixels */
"                                                                ",
"                              GXGXGXGX      GXGXGXGX            ",
"                            GX).:XeXjXGXGXGXbXeX<X&XGX          ",
"                          GXv._.#X<XpXNXZXbXhX9X&X|.|.GX        ",
"                        GXr.d.G.'.L W pXlXlXqXK B W.Y.W.GX      ",
"                      GXv 0.p.n.V S U ~ XXqXGXGXs y D.Y.GX      ",
"                      GXf @.w.a.l GXGXE ) GX    GXw V.Y.GX      ",
"                      GX7 q =.w.GX    GXGX      GXV.m.U.GX      ",
"                      GX2 3  .7.7.GX          GXS.K.W.GX        ",
"                        GX> = 3 :.2.GXGX    GXN R.!.XXGX        ",
"                          GX= , g 5.I.].GX    GXS >X9XGX        ",
"                            GX5 ;./.fXuX4.GX    GXP lXbXGX      ",
"                          GX+ Y F.VXFX{.4.x.GXGXGX/ NXDXGX      ",
"                          GX* k -XcX3Xg.c d.N.I / bXSXFXGX      ",
"                          GXe r G iXt.T x d.P.#XpXmXZXGX        ",
"                        GXi X.s.Z x s GXr x /.=XfXVXZXGX        ",
"                      GXA i..XZ.D GXGX  GXGXH ~.{.GXGX          ",
"                    GXJ B.3X#X] GX          GXGXGX              ",
"                  GXm H.3X1X-.GX                                ",
"                GXz M.uXuX<.GX                                  ",
"              GX0 v.7XuX,.GX                                    ",
"            GX1 2.:X2X_ GX                                      ",
"          GX; o.[.&X_ &.GX                                      ",
"        GX> } D.[.) F.2X*.GX                                    ",
"      GXO F u.z.( d.~.}.6X$.GX                                  ",
"    GXX j =.y.b >.j.].8X6.%.GX                                  ",
"  GX. h { O.i ..0.j.&X#.GXGX                                    ",
"  GXo n [ 8 R | >.'.Q GX                                        ",
"    GX# @ % 6 ' l.a GX                                          ",
"      GXGXGXGX9 k.< GX                                          ",
"              GX& $ GX                                          ",
"                GXGX                                            "
};
