/* XPM */
static char *_11df57f932e4828c7e2a99cd0c3959fWFeLcSnrQGQDaMmh[] = {
/* columns rows colors chars-per-pixel */
"32 32 215 2 ",
"   c #763602",
".  c #6E4D00",
"X  c #7B4305",
"o  c #7D4B02",
"O  c #7B4A09",
"+  c #734905",
"@  c #785207",
"#  c #7C4E13",
"$  c #5F7A19",
"%  c #6E6D04",
"&  c #6B6C0E",
"*  c #796A0E",
"=  c #6C740B",
"-  c #6B790B",
";  c #667704",
":  c #747305",
">  c #73720D",
",  c #74790A",
"<  c #797B0C",
"1  c #7C760D",
"2  c #6B6E14",
"3  c #6D6D1D",
"4  c #696916",
"5  c #746E14",
"6  c #796E13",
"7  c #766E1A",
"8  c #7A6F1C",
"9  c #677413",
"0  c #6C7415",
"q  c #657B15",
"w  c #6B7A14",
"e  c #65731A",
"r  c #6C731C",
"t  c #637B1A",
"y  c #6D7A1C",
"u  c #737414",
"i  c #7A7514",
"p  c #747B14",
"a  c #7A7916",
"s  c #72751C",
"d  c #7B731C",
"f  c #747A1C",
"g  c #797A1C",
"h  c #6D6D24",
"j  c #6C6D2B",
"k  c #746D25",
"l  c #7B6C22",
"z  c #776929",
"x  c #657424",
"c  c #6E7223",
"v  c #6C7923",
"b  c #6C732D",
"n  c #6C7B2B",
"m  c #647821",
"M  c #737424",
"N  c #7A7423",
"B  c #757A23",
"V  c #797C22",
"C  c #73742A",
"Z  c #7A742A",
"A  c #757B2B",
"S  c #7B782A",
"D  c #6E6D33",
"F  c #716B37",
"G  c #667A35",
"H  c #667635",
"J  c #767436",
"K  c #737C3D",
"L  c #7A7440",
"P  c #8A4805",
"I  c #9A4B03",
"U  c #904F0D",
"Y  c #8A5703",
"T  c #955304",
"R  c #945A0A",
"E  c #995907",
"W  c #9B5714",
"Q  c #985816",
"!  c #A65A09",
"~  c #A05B10",
"^  c #B75E13",
"/  c #98620B",
"(  c #9F6313",
")  c #9B6718",
"_  c #80771D",
"`  c #8C650A",
"'  c #A06000",
"]  c #A46A0C",
"[  c #A96407",
"{  c #B16305",
"}  c #A76C16",
"|  c #A9631A",
" . c #BF6E1C",
".. c #BD7810",
"X. c #816F27",
"o. c #816C29",
"O. c #817323",
"+. c #81752A",
"@. c #837D25",
"#. c #8C6D37",
"$. c #A56C24",
"%. c #AE6F22",
"&. c #B36D27",
"*. c #A07028",
"=. c #B37D24",
"-. c #BA7A2A",
";. c #BC7B34",
":. c #C56D26",
">. c #C67626",
",. c #B57E45",
"<. c #5F8017",
"1. c #68811A",
"2. c #74811C",
"3. c #7C821D",
"4. c #798114",
"5. c #79822A",
"6. c #7B8030",
"7. c #B4882A",
"8. c #B7942C",
"9. c #AD8935",
"0. c #B78738",
"q. c #BE9738",
"w. c #B79531",
"e. c #B7A838",
"r. c #D0842C",
"t. c #C48C34",
"y. c #C3883C",
"u. c #CD9B3D",
"i. c #CA9439",
"p. c #C58B28",
"a. c #E49036",
"s. c #CCAC3D",
"d. c #C5AA37",
"f. c #D1A33D",
"g. c #D3B73C",
"h. c #BA9E46",
"j. c #BE9651",
"k. c #BDA64B",
"l. c #C59E4A",
"z. c #C49545",
"x. c #C99450",
"c. c #D39945",
"v. c #C9A84A",
"b. c #D0A240",
"n. c #CDB64B",
"m. c #DBB749",
"M. c #CBA952",
"N. c #C4A854",
"B. c #D4AC53",
"V. c #D5AB5A",
"C. c #CABE52",
"Z. c #D6B454",
"A. c #DEB25D",
"S. c #D4BF5D",
"D. c #D4B35A",
"F. c #E7BF4E",
"G. c #E0B544",
"H. c #E5AE5C",
"J. c #E4B95D",
"K. c #F2BE59",
"L. c #DEAF69",
"P. c #DCB36E",
"I. c #D9B964",
"U. c #D1BD76",
"Y. c #E7BD66",
"T. c #DDC64B",
"R. c #D3C357",
"E. c #E5C359",
"W. c #DDC569",
"Q. c #DCCA6A",
"!. c #D8C866",
"~. c #DCD66B",
"^. c #D4D667",
"/. c #CEC373",
"(. c #DEC97D",
"). c #DBC373",
"_. c #E5C464",
"`. c #EBC463",
"'. c #E2C86A",
"]. c #F2C66C",
"[. c #E3D366",
"{. c #E3D568",
"}. c #ECCC7C",
"|. c #E3C376",
" X c #E7D377",
".X c #F6D47A",
"XX c #DFCF81",
"oX c #DFDB91",
"OX c #EECC8C",
"+X c #ECD484",
"@X c #EBD984",
"#X c #E5D78A",
"$X c #ECDB8A",
"%X c #E4D784",
"&X c #F5D285",
"*X c #F7D788",
"=X c #E2CD94",
"-X c #ECDC94",
";X c #E5D894",
":X c #F3D699",
">X c #E3E28F",
",X c #E8E899",
"<X c #F5E295",
"1X c #FDDAA4",
"2X c #EAE5A1",
"3X c #FEFCEC",
"4X c #F7FFEC",
"5X c #ECFFFF",
"6X c #E3FFFD",
"7X c #FFF4F4",
"8X c #F3FFF4",
"9X c #FAFEF3",
"0X c #FFF5FE",
"qX c #F5FEFD",
"wX c #FDFDFE",
/* pixels */
"s s s s s s s s k - f z w J u c f N d t w N 5 v 9 B u c i y y s ",
"s s s s s s s s M a M e @.2 , 7X8XwX7XZ 8 _ wXwXwX9Xg s 9 B 4 B ",
"s s s s s s s s 9 +.c 4.2 5 wX).}. X#XwX5X9X;X%X%XQ.0XS M u V u ",
"s s s s s s s s g e d v 5 wXS.W.W. X$X$X#X+X&X&X].Y./.wXD 5 3.8 ",
"s s s s s s s s 0 3.j 7 wXk.n.D.(.^ >.*X;X>X[.| W `.m.I.qXZ : b ",
"s s s s s s s s f r i 5XR k.M.m.{ ] %.;.`.+X0X4X` T A.T.qX7 C f ",
"s s s s s s s y c i y qX~ i.h.b.Q wX0X&.7.wXr M wXW L.I.wXi c N ",
"s s s s s s s s M y r wXI R i.k.qX5 p qXwXs s i 9XZ.V.J.5XB < 3 ",
"s s s s s s s s c d : qXP U 9.x.k.wX8 S x i 1.qXD.P.I.wXs N 0 c ",
"s s s s s s s s B a C u wX+ U o w.d.9X3XH g 3X^ I.).].wX= : y u ",
"s s s s s s s y 2 z 2.u B 8X+ T | u.U.E.wX7 k wX{ Q.~.wXt K X.i ",
"s s s s s s s s C f x , 3 #.8XI q.F.+X+Xv.wXy q wX .:XOXwX9 = M ",
"s y s s s s s s B ; O.b 1 wXO $.P.-X,X_.a.C.0XqXwX>.:X1XwXw 3.c ",
"s s s s M s s s 8 0 X.> 1.wX+ ! {.*X%Xg.[ Z.S.:...;X,X,XwXy 6 M ",
"s s s s s s s s s S c a = qXR T [ .XB.&.! B.R._.@X<X*XwXN % V s ",
"s s s s s s s s = c s M wX) 7.V.$.! T qXE W Y. X%X-X<XwXc S & v ",
"M B u 0 p S M i C 0 i wX*.b.'.Z.] wXwX3 6XwX} T.^.wX0XM % V 3 g ",
"r i B 8 3 t u d w a wX! R.*XW.w.wX0 < _ : k 0X0X7XB = B f 0 C B ",
"w B * s 5.4 0 s s wX! E.%X|.i.9Xt d u 0 o.S q s S 0 g h M S 2 0 ",
"0 M f e r g s G 0X/ Y.>X.Xf.qXu h a y n 9 0 r i p 3 p p h s p B ",
"g M c B u S > 7XY n.{. Xu.wXc g M g u M 6.2 5.c D s - u B u 3 B ",
"M ; M s d 0 wXY l.`.&X8.wXw u u M u 2 0 % a M , s u s h 0 s B u ",
"s Z = N a wX. t.`.|.t.p.qXV c J c d g A M 5 C j M s u B C B 0 7 ",
"s > N G 3X@ 0.A.W.7.G.=Xf.7XM - y = s M u a 0 s s g u f s s 0 M ",
"X.6 M 9XX } N.m.;.D.m.!..Xt.4XN s s s s s s s s 0 s s s s s s s ",
"t w qX  W z.l.) e.s.[.}.f.y.wX0 s y s s s s s s s s s s B r s s ",
"M wX@ Y 9.j.R 0.e.A.[.r.9X9XF p s s s s s s s s s s s s s s s s ",
"k wX  ( ,.P 7.0.c.Y.=.7XC ; t d s s s s s s s s s s s s s s s s ",
"a p qXO + # O 0.v.Q wX= i M B 6 s s s s s s s s s s s s s s s s ",
"t k N wX8X8X0XT M.o 0XJ s e N 8 s s s s s s s s s s s s s s s s ",
"a p z t i s m 9X+ P 5Xw 2 u 1.p s s B r s s s s s s s s s s s s ",
"d h q 1 d C C i wXwXd d d N f x s s s s s s s y s s s s s s s s "
};
