/* XPM */
static char *_80faa51d5de4e14dd8b01b9f6cd01ecE1BoUlo6buZFWBg4[] = {
/* columns rows colors chars-per-pixel */
"32 32 225 2 ",
"   c #020201",
".  c #020802",
"X  c #03000B",
"o  c #0B0209",
"O  c #130A07",
"+  c #001301",
"@  c #071A09",
"#  c #1A120E",
"$  c #161907",
"%  c #070017",
"&  c #180919",
"*  c #0B1315",
"=  c #0D1A18",
"-  c #1C121B",
";  c #1D1D1B",
":  c #171618",
">  c #210E0A",
",  c #261B1F",
"<  c #182116",
"1  c #072815",
"2  c #21221D",
"3  c #1A1A24",
"4  c #081B21",
"5  c #230E21",
"6  c #5B0F13",
"7  c #4D131F",
"8  c #551916",
"9  c #5C191D",
"0  c #581B18",
"q  c #47180E",
"w  c #791B1A",
"e  c #62171C",
"r  c #4C260D",
"t  c #4C2617",
"y  c #53241C",
"u  c #5E211E",
"i  c #552113",
"p  c #573218",
"a  c #57200B",
"s  c #7B231D",
"d  c #590F2C",
"f  c #4D1E23",
"g  c #4A1927",
"h  c #541724",
"j  c #5B1325",
"k  c #541B23",
"l  c #5D1C22",
"z  c #53162C",
"x  c #5B162B",
"c  c #511C2C",
"v  c #5A1C2C",
"b  c #541C31",
"n  c #5D1A33",
"m  c #591638",
"M  c #4E1E36",
"N  c #611B25",
"B  c #621628",
"V  c #7B1C23",
"C  c #631D35",
"Z  c #681A3A",
"A  c #7D1C32",
"S  c #7F1C38",
"D  c #4C2125",
"F  c #4E232D",
"G  c #482826",
"H  c #552126",
"J  c #5C2124",
"K  c #54222B",
"L  c #5A212D",
"P  c #542531",
"I  c #5B2631",
"U  c #63242E",
"Y  c #7C222A",
"T  c #782626",
"R  c #67213B",
"E  c #6B6E0D",
"W  c #666A09",
"Q  c #6D740A",
"!  c #667A0D",
"~  c #6B7807",
"^  c #72750C",
"/  c #7A730E",
"(  c #727B0D",
")  c #777804",
"_  c #6D6F14",
"`  c #6E6E1A",
"'  c #6A6A17",
"]  c #726E14",
"[  c #746C1D",
"{  c #7B6C1A",
"}  c #6D7314",
"|  c #6B7A13",
" . c #65731D",
".. c #6E721B",
"X. c #6C7A1B",
"o. c #667816",
"O. c #737515",
"+. c #737A13",
"@. c #72741B",
"#. c #7B741D",
"$. c #74791C",
"%. c #7A7B1C",
"&. c #7A7815",
"*. c #7D4D2E",
"=. c #5F7D23",
"-. c #6B6D22",
";. c #6D6E2C",
":. c #726E22",
">. c #7B6A25",
",. c #726C2A",
"<. c #78662C",
"1. c #647423",
"2. c #6D7324",
"3. c #6A7A24",
"4. c #6D742A",
"5. c #737423",
"6. c #7C7423",
"7. c #757A23",
"8. c #7B7A24",
"9. c #74752A",
"0. c #7B722B",
"q. c #76792B",
"w. c #787B2A",
"e. c #7E6D33",
"r. c #6E7233",
"t. c #767534",
"y. c #7A7534",
"u. c #5F2440",
"i. c #7D3F40",
"p. c #820F1C",
"a. c #821A1D",
"s. c #8B1D1D",
"d. c #881918",
"f. c #892419",
"g. c #8D1622",
"h. c #851C24",
"j. c #8D1B24",
"k. c #851D2B",
"l. c #8C1C2C",
"z. c #8A172B",
"x. c #921D26",
"c. c #94162C",
"v. c #931D2A",
"b. c #991B29",
"n. c #861D32",
"m. c #8E1B32",
"M. c #8B1C3B",
"N. c #921A32",
"B. c #A41320",
"V. c #A5123C",
"C. c #83212D",
"Z. c #8A222A",
"A. c #872324",
"S. c #962626",
"D. c #923F2D",
"F. c #842231",
"G. c #882439",
"H. c #952434",
"J. c #8C3C33",
"K. c #81740E",
"L. c #806F13",
"P. c #857419",
"I. c #884729",
"U. c #97452B",
"Y. c #84562E",
"T. c #8E4533",
"R. c #834B36",
"E. c #8B4A32",
"W. c #894739",
"Q. c #924339",
"!. c #8A5133",
"~. c #A04936",
"^. c #827221",
"/. c #817B2F",
"(. c #807235",
"). c #861B47",
"_. c #8E2140",
"`. c #913B48",
"'. c #874649",
"]. c #934747",
"[. c #8E4D51",
"{. c #FF584F",
"}. c #F5575A",
"|. c #F04D6C",
" X c #F55C6C",
".X c #5D8211",
"XX c #618009",
"oX c #7D811D",
"OX c #76861B",
"+X c #6C8118",
"@X c #74822C",
"#X c #99B8B0",
"$X c #AEB2B1",
"%X c #B9B4B9",
"&X c #BAB1AA",
"*X c #F0C69E",
"=X c #F4CDA5",
"-X c #F9C9A4",
";X c #B6AFC1",
":X c #BAD0DB",
">X c #BBD2E0",
",X c #C0CCC0",
"<X c #CCD5C9",
"1X c #C4CDD4",
"2X c #CACED4",
"3X c #C5CCDD",
"4X c #C9CBDB",
"5X c #C4C6D7",
"6X c #CCD3D6",
"7X c #CBD4DE",
"8X c #C2D1D6",
"9X c #D3D1D2",
"0X c #D5CADB",
"qX c #FFFFD6",
"wX c #CBCDE3",
"eX c #CBCEEB",
"rX c #C7C7E5",
"tX c #CDD2E4",
"yX c #CFD6E9",
"uX c #D2D1E1",
"iX c #C5CAF2",
"pX c #F9F9EF",
"aX c #FFFFF5",
"sX c #FDFDFE",
"dX c #F7F4FF",
/* pixels */
"#._ 5.7.$.` 6.@.@.] +.] 3.0.@.O.] %.2.} X.6.X.E.aXr...^ @.+.@.7.",
"6.@.@...X.#.@.X.X.$.#.6.] X.@.5.6.2.@./ :.2./ I.sXaXt.7.E 0...5.",
"@.@.5...O.$._ O.%.:.t.0 I x H h.d.j.G.$.#.7.W.'.2XsXaX( w.5.` @.",
"X...6.7.$.} @.7.0.r b M g k.k.n.c.G.a.a.| ..!.>X6XeXaX} @.} 8.+.",
"$...5.#.+.} /.<.z K k g.S.s.B.A.T A S.M.T T.Q.6X8X1XsX$.;.( 5.] ",
"X.@.5.} @.@.<.p J x G.z.T C.  %   . % c.n.].rX6X7XrXsXaX%.` %.9.",
"X.#.@.@.@.9.p 7 k Z.s n.G.      .   +   U.*.:XtX:XyX4XsX$.5.' 5.",
"@.] @.O.X.<.q Z j F.v.Z.        o X   . `.F.9X8X8X4X4XsX! $.$.+.",
"! ^.5.( :.B J f z.h.F.  o   - @ @ 3 # J.*.M.L.4XtX1XiXsXaX$.5.@.",
"9.X.5.9.:.c x P C.C.c..   : > |.{.& : !.}.A P.X.2XeX<XtXdXQ ..&.",
"t.+.O.! y P n 9 x.h.A   . : .  X X& T.*.}.m.( .X3.4X,XtXsX2.7.` ",
"[ Q 8.>.n k k N h.l.H.  * , # $ * @ W.$ * A.} ^.| 4X7XrXpX4.5.) ",
"%.! ` x 0 j k L H k.Y C.# o : = & [.i.: : c.6.:.$.3.5X7XsXaX} 9.",
"5.5.$.l v R c h x N.V C.@ : = & $ *.$ - g.T { =.5.7.4X3X5XaX} } ",
"5.:.$.' K y g L v f H.g.N.# = O I.I.# b c.5.8.Q ^ O.<X1X2XsX$.t.",
"/ } $.@X[ { U z v 0 y N.n.n.Y x.Q.n.x H -.! ^.$.[ 9. .tXeXsX+...",
"7._ 7.O._ $...q.i c Z z F.9 g W.R.8 J / X.>.X.2.5.@.X.uX4XsXX.:.",
"@.@.} @.8.@.@.} ..R 6 s Z.n.I U.m (.9.4.5.6.~ 6.@.$...1.tXaX$.@.",
"9._ O.q.2.E %.O.$.x T f.k.z.`.R.z t ) 3.2.#.O.#.#...} OX5XaX+.@.",
"5.$.$.2.5.O.#.,.8 F v h.G.l !.G S.m >.O.%.| 1.} @.8.} 2.eXsX+.` ",
"] %...7.} &.e.t m N B n D Q.D.c w l.l.@.! ! :.q.9.O.` 7.9XsX` 7.",
"O...q.} O.>.t b K Y h.V.s T.2 9 H.C.h.$.$.@.P.5.@.@.$._ 2.sX5.$.",
"$.5.' %.6.r I j g.c.s.l.*X=X4 v.w ).S.E 5.9.{ O.$.@.%.@.) sX} ..",
"@.5.$.Q e.K m e l.Y Z.Y -X=X; j.b.Y a.y./ 2.+.o.@.O.;.7...aX$.@.",
"2.O.2.O.n b a z.m.k.j.I.-X=X: G.k.A m./ 0.! 0.2.9.^ } $.9.qX:.7.",
"9.( K.j h v Y m.k.h.Z.[.: ; ; s.S.f.A f 9.~ } 5.` oX$.} 9.t.....",
"} 1.D Z H l A.F.G.w Q.R.- 1 2 Z.w H.8 C @...7.P.@.+...@.@.5._ $.",
"q.{ H z 0 N w N.f.S.E.= 3 , m.g._.p.u m | 7.3.} O.@.5.@.$.%.$.@.",
"} ] 9.7.c h u.B C.].I.- 3 5 M.P c l n G ' L.@.#.O.5.5.5.@.W #.@.",
"6.&.Q 4.P.P g i l I.@X; $ ; G e t c l ..7.^.2.X.$.-...5...@X@.$.",
";.| 4. .o.6.[ %X;XI.Q ..%.5.#X%X&X,.>.| O.O.:.@.@.5.+.@.@.O.9._ ",
"o.@.P.@.5.) 5.$X%X7.4.9.] / %X%X4.$.| 7.@.3.#.$.@.7.Q @.5.O.5.+."
};
