/* XPM */
static char *fc810ed1f9e74869999070208f96930fQ6qOh4JhGl4Lk1MZ[] = {
/* columns rows colors chars-per-pixel */
"21 44 89 1 ",
"  c #53321D",
". c #583521",
"X c #593724",
"o c #593A27",
"O c #5A3A27",
"+ c #5A3B28",
"@ c #5B3C29",
"# c #5D3E2A",
"$ c #5E3F2A",
"% c #5F402C",
"& c #61412C",
"* c #60402D",
"= c #62432E",
"- c #654937",
"; c #684B36",
": c #6A4C38",
"> c #6A4D39",
", c #694C3A",
"< c #6B4F3E",
"1 c #6F513E",
"2 c #735542",
"3 c #8C7E67",
"4 c #8D7F69",
"5 c #8D7F6A",
"6 c #8E806A",
"7 c #8E816A",
"8 c #8F826D",
"9 c #8F836E",
"0 c #90826E",
"q c #90846E",
"w c #908470",
"e c #908471",
"r c #938773",
"t c #938774",
"y c #968872",
"u c #968973",
"i c #978A73",
"p c #948875",
"a c #968A77",
"s c #978B77",
"d c #998C77",
"f c #978B78",
"g c #968B79",
"h c #978C79",
"j c #988D7B",
"k c #988D7C",
"l c #998F7D",
"z c #9B8F7C",
"x c #998E7E",
"c c #9A907F",
"v c #9C917E",
"b c #9D927F",
"n c #9B9080",
"m c #9B9181",
"M c #9C9283",
"N c #9E9383",
"B c #9E9483",
"V c #9E9485",
"C c #9E9684",
"Z c #A09483",
"A c #A09583",
"S c #A19787",
"D c #A29887",
"F c #A29989",
"G c #A3998B",
"H c #A49A8B",
"J c #A39B8D",
"K c #A69D8D",
"L c #A59D8F",
"P c #A69E90",
"I c #A79E90",
"U c #A79F91",
"Y c #A89F90",
"T c #A7A091",
"R c #A9A190",
"E c #AAA295",
"W c #ABA395",
"Q c #ABA496",
"! c #ACA497",
"~ c #ADA597",
"^ c #ADA598",
"/ c #ADA699",
"( c #AFA79A",
") c #B0A79B",
"_ c #B0A89C",
"` c #B1A99C",
"' c #B0A99D",
"] c #B1A99E",
"[ c #B2AA9E",
/* pixels */
"22><>>>>;:>,,::>>>>>>",
"2E2///)//]]/W)]////)>",
"2EE2RYYRYRRYRRYRRYY)>",
"2EE22EERYW^URRWRWRY)>",
"1YKH2EEEWUWYWWWWEYR]>",
">HDVEWWWWWW^WWWWWWW)>",
"-ZZWW//WW^//WWW/WWW]>",
"22WE/W//^^^W//WW///)>",
"2E2WW/W)W/W)W)W/W)W]>",
"2ER2//)W//)W)W)W(WW)>",
"2UE2W//W//W/////(W/]>",
"2YYH2//////W/W/]((W]>",
";GBZ//E/W)/^/)//(//_>",
";NN/(W//)W^///)/((_[>",
";]]]]/]_)]]]]]]]]]]]>",
"*UNmBNBNNZNNZNNNVCDK&",
"$InnNnnnNNnNNNNNVVVT=",
"&InnznnnnnnnllNnVBNK=",
"*GnnlzznlnnlnnzNmmmK=",
"&GlxnlxllllzlllzclmP=",
"$GnllxxfglllljllllcF*",
"=ZkkfxfxlgxfjjjjhlcG=",
"=VgkxffxffffjggghhlG*",
"=NggffffffffffsghlhF=",
"*VahagahgaagaaaghhhD*",
"$NhagagaaaapaaaaahhC&",
"%vdhaaaaaaaprtaaagsB&",
"%caaaaaapapaaaataadB&",
"$lataaataatgagtataac*",
"$haartatatrtrtragruc=",
"$larttrtttttrttarrtv*",
"*hattttttttttttrtauc*",
"$jurrrrtttttttttrrrj&",
"$fqrrtwtwtttwtwtrrrh*",
"$dqrwwtqwttwtttwrruj*",
"$j008r8rwwwwwwwwr99d&",
"+a8999808t00wwwe0r0d&",
"$a88888q8888688eqq6d&",
"oa48888688w08888600s&",
"oa66696904488488030i@",
"oa66966648846666630uo",
"or55666666584666833uo",
" r35663664455566636u ",
"X oooooo+o+o++oooooXX"
};
