/* XPM */
static char *_78de1084c854f36c250df7f6a6555edAelVaEBtIDlnzZYt[] = {
/* columns rows colors chars-per-pixel */
"21 48 231 2 ",
"   c None",
".  c #53321D",
"X  c #573622",
"o  c #583521",
"O  c #593724",
"+  c #593A27",
"@  c #5A3A27",
"#  c #5A3B28",
"$  c #5B3C29",
"%  c #5C3D2A",
"&  c #5D3E2A",
"*  c #5E3F2A",
"=  c #5E3F2B",
"-  c #5F402C",
";  c #60402B",
":  c #60412C",
">  c #61412C",
",  c #60402D",
"<  c #60412D",
"1  c #61422D",
"2  c #61422E",
"3  c #62422E",
"4  c #62432E",
"5  c #684B36",
"6  c #6A4D39",
"7  c #705340",
"8  c #735542",
"9  c #8C7E67",
"0  c #8C7E68",
"q  c #8C7F69",
"w  c #8D7F69",
"e  c #8D7F6A",
"r  c #8D806A",
"t  c #8D816A",
"y  c #8D806B",
"u  c #8D816B",
"i  c #8E806A",
"p  c #8E816A",
"a  c #8E806B",
"s  c #8E816B",
"d  c #8E826B",
"f  c #8E816C",
"g  c #8F816C",
"h  c #8F816D",
"j  c #8E826C",
"k  c #8F826C",
"l  c #8F826D",
"z  c #8F836E",
"x  c #90826E",
"c  c #90836E",
"v  c #90836F",
"b  c #90846E",
"n  c #91846E",
"m  c #90846F",
"M  c #91846F",
"N  c #908470",
"B  c #918470",
"V  c #908471",
"C  c #918471",
"Z  c #918571",
"A  c #928570",
"S  c #928671",
"D  c #918572",
"F  c #928572",
"G  c #928672",
"H  c #938772",
"J  c #928673",
"K  c #938673",
"L  c #938773",
"P  c #938774",
"I  c #948873",
"U  c #968872",
"Y  c #968973",
"T  c #978A73",
"R  c #948874",
"E  c #958974",
"W  c #948875",
"Q  c #958975",
"!  c #968975",
"~  c #978A74",
"^  c #968A75",
"/  c #978A75",
"(  c #958976",
")  c #958977",
"_  c #958A76",
"`  c #958A77",
"'  c #978A76",
"]  c #968A77",
"[  c #978B77",
"{  c #998C77",
"}  c #968A78",
"|  c #968B78",
" . c #978B78",
".. c #968B79",
"X. c #978B79",
"o. c #978C79",
"O. c #978C7A",
"+. c #998C78",
"@. c #988D78",
"#. c #998D78",
"$. c #988C79",
"%. c #998D79",
"&. c #9A8E79",
"*. c #988C7A",
"=. c #988D7A",
"-. c #988D7B",
";. c #998E7A",
":. c #9A8E7A",
">. c #9A8F7B",
",. c #988D7C",
"<. c #998E7C",
"1. c #998E7D",
"2. c #998F7D",
"3. c #9A8F7C",
"4. c #9B8F7C",
"5. c #9A8F7D",
"6. c #998E7E",
"7. c #9A8F7E",
"8. c #9A8F7F",
"9. c #9A907E",
"0. c #9B907E",
"q. c #9B917E",
"w. c #9A907F",
"e. c #9B907F",
"r. c #9C907D",
"t. c #9C917D",
"y. c #9C917E",
"u. c #9D927F",
"i. c #9B9080",
"p. c #9B9181",
"a. c #9C9180",
"s. c #9C9181",
"d. c #9E9180",
"f. c #9D9380",
"g. c #9C9281",
"h. c #9D9281",
"j. c #9D9381",
"k. c #9F9381",
"l. c #9C9282",
"z. c #9D9282",
"x. c #9D9382",
"c. c #9C9283",
"v. c #9D9283",
"b. c #9D9383",
"n. c #9E9382",
"m. c #9E9383",
"M. c #9E9482",
"N. c #9E9483",
"B. c #9D9384",
"V. c #9E9384",
"C. c #9E9484",
"Z. c #9E9485",
"A. c #9E9585",
"S. c #9E9684",
"D. c #9E9685",
"F. c #9F9685",
"G. c #9F9586",
"H. c #9F9686",
"J. c #9F9687",
"K. c #9F9787",
"L. c #A09382",
"P. c #A29685",
"I. c #A09686",
"U. c #A19786",
"Y. c #A19687",
"T. c #A19787",
"R. c #A29788",
"E. c #A19989",
"W. c #A29989",
"Q. c #A39A8B",
"!. c #A49889",
"~. c #A5998B",
"^. c #A59A8B",
"/. c #A39B8D",
"(. c #A59B8C",
"). c #A49C8D",
"_. c #A69C8C",
"`. c #A49C8E",
"'. c #A59D8F",
"]. c #A69D8F",
"[. c #A69E8F",
"{. c #A89E8F",
"}. c #A69E90",
"|. c #A79F91",
" X c #A99F90",
".X c #A99F92",
"XX c #A7A091",
"oX c #A8A090",
"OX c #A9A190",
"+X c #A8A091",
"@X c #A9A191",
"#X c #A9A092",
"$X c #A9A192",
"%X c #A9A093",
"&X c #A9A193",
"*X c #AAA093",
"=X c #AAA193",
"-X c #AAA292",
";X c #AAA293",
":X c #AAA194",
">X c #AAA294",
",X c #ABA394",
"<X c #AAA295",
"1X c #ABA395",
"2X c #ABA396",
"3X c #ABA495",
"4X c #ACA495",
"5X c #ACA496",
"6X c #ACA497",
"7X c #ACA597",
"8X c #ADA597",
"9X c #ADA598",
"0X c #ADA698",
"qX c #ADA699",
"wX c #AEA699",
"eX c #AEA69A",
"rX c #AFA69A",
"tX c #AEA79A",
"yX c #AFA79A",
"uX c #AFA69B",
"iX c #AFA79B",
"pX c #AFA79C",
"aX c #B0A79B",
"sX c #B0A89B",
"dX c #B0A89C",
"fX c #B0A99C",
"gX c #B1A99C",
"hX c #B0A99D",
"jX c #B1A99D",
"kX c #B1A99E",
"lX c #B2AA9E",
/* pixels */
"          8                   8           ",
"        8 #X8               8 >X8         ",
"      8 .X>X#X8           8 3X3X2X8       ",
"      8 #X>X#X8           8 >X3X>X8       ",
"8 8 8 _..XOX{._.8 8 8 8 8 .X>X>X>X>X6 8 8 ",
"8 tX,Xu.~.~.~.P.OXOXOXOX#XR.}.}.}.!..XtX8 ",
"6 tX#X#Xk.k.L.#XOXOXOXOX#XOX!.P.P.}.#XtX7 ",
"6 tX#X>X#X3X#X#X,X#X#X#X#X#X=X#X>X#XXXsX7 ",
"6 tX#X>X1X>X>X.X2X>X>X>X>X>X>X1X>X>X>XdX6 ",
"6 aX1X4X1X1X6X6X2X2X2X2X6X1X1X1X3X>X3XdX6 ",
"6 pX1X1X1X6X6X1X6X6X6X6X1X1X1X1X4X4X4XdX6 ",
"6 aX>XtX1XtX6XaX6XpX6X6XaX1XtX6X>XtX4XdX6 ",
"6 tX>XtX>XtX6X6X6XtX6XtX6X6X6X6XtX>XtXtX6 ",
"6 aXtX>XtX1XtX6X6X6X6X6X6XaXtX1X4XtX4XdX6 ",
"6 pXtXtX6XtX6X6XtXtX6XtX6X6XaXaXtX4XtXdX6 ",
"6 aXtX1XtX1X6XtX6X6X6XaXtXaXtX1XtXtXtXdX6 ",
"6 dX6XtXtX1XtX4XtX1X4XtXtXtXtXtXtXtXtXaX6 ",
"6 dXtXtX6XtX6XtX1XtXtXdXtXtXtXdXtXtXaXdX6 ",
"5 kXdXdXaXdXdXdXdXdXdXdXaXdXdXdXdXdXdXdX6 ",
"2 }.c.V.V.V.c.V.V.L.L.c.G.V.V.P.J.R.R.#X2 ",
"2 }.p.p.c.c.y.c.c.c.c.c.c.c.L.c.G.G.G.XX2 ",
"2 _.i.p.4.i.4.i.p.i.c.4.4.c.c.y.c.c.B._.2 ",
"2 Q.i.i.,.p.,.c.,.i.,.c.c.4.y.c.y.c.c.`.2 ",
"2 W.,.2.i.4.,.,.4.,.4.,.,.y.,.,.0.0.0._.2 ",
"2 G.0.2.O.O.2.O.,.,.,.,.,.,.,.,.2.2.0._.2 ",
"2 G.O.0.2.2...2.O.;.,.,.,.;.;.,.2.2.2.`.2 ",
"2 K.O.O.X.X...,.;.;.O.O.;.;...;...O.;.W.2 ",
"2 k.O.O.X.[ ....` ] ] ] [ X.] X...O.;.W.2 ",
": c.[ ..X.[ X.] ` ] ] ..] ] ] ] ....X.P.: ",
": y.X.] X...] ..] ] ] W W ] ] ....] ..G.- ",
"; c.] ..] ] ] ] O.] ] W ] W ] W ] ] ..P.2 ",
"* y.] ] ] ] ] ] W ] W ] W ] W ] W ] O.k.- ",
"* 4.] ] W ] W ] W ] W ] W ] W ] W ] W y.: ",
"* ;.R ] W W W W W W W W W W W W ] W ] 0.: ",
"* ;.] K W W W J J W J W J W W W F ] E r.: ",
"* ;.] K J W J W W J W J W J W J ] E J r.: ",
"* ;.F F R F W J E J J J J J J J K ] F r.: ",
"* ;.F C F P F F J J J J F W J J F E F ;.: ",
"* ;.M M F F F F J F J J J J J F F F F ;.2 ",
"# ;.M M M z z V z z V V V V z F F n n [ : ",
"$ [ z M M M M M F z M z M C M v M M x [ : ",
"$ ..e z d d d M z z M M e z M z x M x { : ",
"@ ] d d d z x e d z d e e M z z x d M T : ",
"@ ] e z e e x e d z e M M e z e d x e T @ ",
"@ E e e d d d d d d e d e d d e e e x T @ ",
"@ E e e 9 x e d 9 i x d e e x e e d 9 K @ ",
". ] 9 d e 9 9 9 9 x e e e e 9 e 9 9 9 E o ",
". . @ @ @ @ @ @ @ @ @ @ @ @ @ @ @ @ @ @ . "
};
