/* XPM */
static char *e68f343b89e640bafde64f25c98c23b5gFvIa0qx7hzSMnJd[] = {
/* columns rows colors chars-per-pixel */
"21 44 91 1 ",
"  c #53321D",
". c #573622",
"X c #583521",
"o c #593724",
"O c #593A27",
"+ c #5A3A27",
"@ c #5A3B28",
"# c #5B3C29",
"$ c #5C3D2A",
"% c #5D3E2A",
"& c #5E3F2B",
"* c #5F402C",
"= c #61412C",
"- c #61422D",
"; c #62432E",
": c #654937",
"> c #684B36",
", c #6A4C38",
"< c #6A4D39",
"1 c #6B4F3E",
"2 c #6F513E",
"3 c #735542",
"4 c #8C7E67",
"5 c #8D7F6A",
"6 c #8D806A",
"7 c #8D816A",
"8 c #8E806A",
"9 c #8E826B",
"0 c #8F836E",
"q c #90826E",
"w c #90836E",
"e c #91846F",
"r c #908470",
"t c #908471",
"y c #928572",
"u c #938772",
"i c #938673",
"p c #938774",
"a c #968872",
"s c #948874",
"d c #948875",
"f c #968A75",
"g c #958977",
"h c #958A76",
"j c #978A76",
"k c #998C77",
"l c #968A78",
"z c #968B79",
"x c #978C7A",
"c c #998E7A",
"v c #9A8E7A",
"b c #988D7C",
"n c #9A8F7E",
"m c #9A8F7F",
"M c #9B907F",
"N c #9E917F",
"B c #9B9080",
"V c #9C9180",
"C c #9D9381",
"Z c #9C9283",
"A c #9E9382",
"S c #9E9485",
"D c #9E9684",
"F c #9F9687",
"G c #A09583",
"H c #A19787",
"J c #A29887",
"K c #A19989",
"L c #A3998B",
"P c #A49A8B",
"I c #A39B8D",
"U c #A69D8D",
"Y c #A49C8E",
"T c #A79F91",
"R c #A89E90",
"E c #A89F90",
"W c #A7A091",
"Q c #A9A191",
"! c #A9A194",
"~ c #AAA295",
"^ c #ABA395",
"/ c #ABA496",
"( c #ACA496",
") c #ACA497",
"_ c #AEA699",
"` c #AEA69A",
"' c #AEA79A",
"] c #B0A79B",
"[ c #B0A89B",
"{ c #B1A99C",
"} c #B2AA9E",
/* pixels */
"<<<<<<<<<<<<<<<<<2<33",
"<_________________3!3",
"<_QTQQQQQQQQQQQQT3~~3",
"<]QQQQQQQQQWQ~Q~33~~3",
"<[~Q~~~Q~~~~~~~~3IUR2",
"<[(/~(/()~~/)~/~~CKK<",
"<[~(~~(~~)))))))~(GJ:",
"<[_/__(__)_)___)_~/33",
"<{/_))_)_)_))_))((3~3",
"<{//__)_)_)__)_)_3Q~3",
"<{_______)_))_)__3~Q3",
"<{(_____)_)__)_)3LUR2",
"<{`___``___)_))__SHP<",
"<{__``''____)___(_CC>",
"<{{{{{}`'{{{'`{']_]{>",
"=~KFFSSSSSSSSSSSSCHR*",
";RSSGCCGCBGCBBBCZBZL;",
";LSGSBCMBBBBBCBbBBBU;",
";UCBBBbCBBBBBBBbBBBI;",
"=TmmBbMbBBjmbmBBzbBL=",
"=TxBbbbbgBbBBzBbxBbD;",
";UbxBBjCbjjzjBjbbzMS;",
"&LBxbjjbbzzbjbbzzbbS;",
"=IxxjbfzjfzzbjjjxxzS;",
"&SzzzfzfzdzfzgzgfxbN*",
"=KxxfzfzfzzfgzzgkkfM;",
"*SkhzpfhdddzjzzzzzfD*",
"=DxfphzpzdfdffdfzhfM$",
"=CfdfppfzpzdfffhhpfM$",
"=Bddhzpffpppppppphfx*",
"=Cddzpgppppppppffphx$",
";bppppppppppppppppfb*",
"=vdippppppdppppphppk*",
";jiippppp9rppqppepeb$",
"=biitpepprpprrrr9e0M$",
"$ffe9p0prrrrrrrrue0x$",
";jeeew9eqrpqrqqt000f+",
";kwewee0q99erq99000f*",
"$jw8w980895q5qq9880fO",
"#j888we8r9q5q5r9087fO",
"#e8888885q55w5w4888f+",
"+f468888555q558w848pO",
" k64888755556888888j ",
"XoOOOOO+@+++o++o+++X "
};
