/* XPM */
static char *player21668634342[] = {
/* columns rows colors chars-per-pixel */
"32 32 217 2 ",
"   c #010301",
".  c #080002",
"X  c #000A02",
"o  c #07000C",
"O  c #09000C",
"+  c #000D0C",
"@  c #0C0F08",
"#  c #0F0A04",
"$  c #140009",
"%  c #190A05",
"&  c #071300",
"*  c #0D1206",
"=  c #06100F",
"-  c #0C1B0C",
";  c #0C1808",
":  c #14150C",
">  c #19160A",
",  c #0C0011",
"<  c #0F0818",
"1  c #030015",
"2  c #150C12",
"3  c #1A0C19",
"4  c #0A1216",
"5  c #0C1C17",
"6  c #0A191D",
"7  c #1B1213",
"8  c #171D12",
"9  c #1C131C",
"0  c #18191E",
"q  c #171619",
"w  c #231A16",
"e  c #08200A",
"r  c #092415",
"t  c #19241C",
"y  c #0D0920",
"u  c #150B28",
"i  c #131424",
"p  c #1E1122",
"a  c #1D1D22",
"s  c #17192E",
"d  c #14263C",
"f  c #222F3F",
"g  c #5E7108",
"h  c #5E7C18",
"j  c #637404",
"k  c #6B7203",
"l  c #6D730C",
"z  c #627C0E",
"x  c #6D7C0A",
"c  c #6B7B00",
"v  c #707703",
"b  c #727904",
"n  c #787A00",
"m  c #73750D",
"M  c #7D730D",
"N  c #747C0D",
"B  c #7C7D08",
"V  c #6D6E14",
"C  c #636D1F",
"Z  c #6E6E19",
"A  c #726E14",
"S  c #7A6C14",
"D  c #746D1A",
"F  c #796D1B",
"G  c #657313",
"H  c #6D7414",
"J  c #6D7C13",
"K  c #64721D",
"L  c #6C731C",
"P  c #647B1D",
"I  c #6C7B1A",
"U  c #737414",
"Y  c #7B7412",
"T  c #747B15",
"R  c #7B7A14",
"E  c #72751C",
"W  c #7A751B",
"Q  c #737A1C",
"!  c #797C1C",
"~  c #6D6E24",
"^  c #6A6D2C",
"/  c #726E24",
"(  c #7A6C22",
")  c #726F29",
"_  c #7A6A28",
"`  c #637524",
"'  c #6C7424",
"]  c #6C7C22",
"[  c #6D7429",
"{  c #69792D",
"}  c #737423",
"|  c #7A7523",
" . c #747A23",
".. c #797A22",
"X. c #73742C",
"o. c #7A742A",
"O. c #747A29",
"+. c #7A7C2C",
"@. c #6B7832",
"#. c #747433",
"$. c #7D7433",
"%. c #1C1F48",
"&. c #0C2A49",
"*. c #1D2C43",
"=. c #142B4D",
"-. c #172849",
";. c #0B304B",
":. c #133343",
">. c #13344B",
",. c #1E3648",
"<. c #0D2E54",
"1. c #0D2B5B",
"2. c #0E2654",
"3. c #102753",
"4. c #1E2554",
"5. c #142D53",
"6. c #1C2A54",
"7. c #15275A",
"8. c #1D265D",
"9. c #132B5B",
"0. c #1D2C5D",
"q. c #0D3456",
"w. c #0F345B",
"e. c #143356",
"r. c #1D3355",
"t. c #14335B",
"y. c #1B345C",
"u. c #173959",
"i. c #29284E",
"p. c #233346",
"a. c #20364D",
"s. c #212753",
"d. c #242A54",
"f. c #23255C",
"g. c #272B5F",
"h. c #223354",
"j. c #253359",
"k. c #0F2E67",
"l. c #162564",
"z. c #1B2565",
"x. c #1B2B63",
"c. c #1C2E69",
"v. c #142C6A",
"b. c #173164",
"n. c #193161",
"m. c #1E316B",
"M. c #1F3F7A",
"N. c #212463",
"B. c #242B65",
"V. c #283469",
"C. c #203B7E",
"Z. c #1B4175",
"A. c #1A427C",
"S. c #1C4D7F",
"D. c #14497D",
"F. c #25457A",
"G. c #806E24",
"H. c #827324",
"J. c #847F21",
"K. c #F94D59",
"L. c #FA5750",
"P. c #F3515C",
"I. c #FF5865",
"U. c #FC5068",
"Y. c #F15361",
"T. c #6E810B",
"R. c #73841A",
"E. c #798019",
"W. c #718317",
"Q. c #688318",
"!. c #768328",
"~. c #1B3C84",
"^. c #1D3F8D",
"/. c #153A84",
"(. c #1B3A95",
"). c #1C3E98",
"_. c #243D83",
"`. c #223C8C",
"'. c #2A3B8D",
"]. c #2A3F91",
"[. c #233A98",
"{. c #154484",
"}. c #1D4284",
"|. c #154884",
" X c #1D4986",
".X c #15468C",
"XX c #1E448E",
"oX c #194B8A",
"OX c #145086",
"+X c #0A4096",
"@X c #0E4C95",
"#X c #1E4492",
"$X c #1C4A95",
"%X c #1B419B",
"&X c #144490",
"*X c #224284",
"=X c #294A87",
"-X c #23428B",
";X c #2B448B",
":X c #20488E",
">X c #2B4D8D",
",X c #254784",
"<X c #324482",
"1X c #234393",
"2X c #244A92",
"3X c #2C4B93",
"4X c #255691",
"5X c #2743A2",
"6X c #AFB6A6",
"7X c #AEB3AC",
"8X c #BEADBD",
"9X c #B6B0B2",
"0X c #B5B7A9",
"qX c #B2C0AF",
"wX c #B3AFC0",
"eX c #AEB5C7",
"rX c #B6B9C0",
/* pixels */
"E E E E E E E E G.E Y ' ( E W L W U } | S H.V ] H T.~ o.| W k [ ",
"E E E E E E E E ' ] G  .U ' ] T Q { ` j I [ W F } #.T l Z E E T ",
"E E E E E E E E E x M E A -X5X/.M.h.0.m.c.z / W } F W v H #.U H ",
"E E E E E E E E U o.` z >X*XC.;X%X{.*Xd 0.v.p.I U N E } Q } } E ",
"E E E E E Q E E O._ ..[.`..X_.@X X`.,X2X_.5.h.9.C +.) U H #.E E ",
"E E E E E L E E h W Z.3X.XX ,     X ^.}.#X1Xe.x.V.g } X.k Q W E ",
"E E E E E E E E T I 1X      .   O .   =XoX/.*X=.&.g.} n E Q X.m ",
"E E E E E E E E ( Q {.. .   1     . o   _.S.1X0.u.4.[ W } l ^ E ",
"E E E E E E E E G J.'.  u 7 * : - i , . . .X.X-X<.8.d.T ' M } J ",
"E E Q L E E E E $.G D.P.: = r U.P.- 6   O oX-X}.,.9.z.g E.o.V [ ",
"E E E E E } E E ' Y ).L.: i 3 P.I.# ; + . .XA.-X7.y.d.6.L ' _ W ",
"E E E E E E E E G O.OX7 6 % 2 r 2 3 w q $ XX}.oXx.=.y.r.z R.Y F ",
"E E E E E E E E | M _.4 * : 7 & 4 ; = : ;X{.].y.h.e.k.6.l.^ x o.",
"E E E E E E E E Q L %X%X5 9 3 p u - : 7 OXZ.`.9.2.a.>.f.j.! H } ",
"E E E E E E E E I m l ;X>.< 9 @ 4 i y ;X(.>X1.*.r.=.8.f.C  .V Q ",
"E E E E E E L Q } x o.F q.d.{. X-XA.S._.1X;.N.b.5.V.P I R Z R ' ",
"E E E E E E E E | U H E X.i.4.y.l.t.q.*Xy.6.c.6.Q V Q ~ T o.l X.",
"L E E E E E E E E ..l E H Q P 3.h.>.*XXXA.t.-.T / X.v ! ~ E b } ",
"E E E E E E E E l  .^ | | G s.V.=.<X].(.4XXX8.O.U +.l ) Q Y Z T ",
"E E E E E E E E !  .X.H } Q.r.3.1.n.=.'.A.<.y.s.L L } ) m /  .E ",
"E E E E E E E E A ' H B ' '.1X^.e.e.x.b.v.d e.5.g.x [ R U W X.L ",
"E E E E E E E E } ! | D R.*X.XXXz.9.F.*X}.>X`.e.N.4.I ~ o.m H E ",
"E E E E E E E E o.j T D ] ,X{.Z.'.,.r v.=X/.}.;X<.j.%.!.} A E T ",
"E E E E E E E L W J ' H.G [.$X`.D.0.q a *X.X$XA.w.9.f ' l E o.E ",
"E E E L E E E E ' R / W h ;X-X^.{.B.w t ;.#XXX*X*Xw.9.i.T V E ' ",
"E E E E E E E E Q m ) } 4.^.}. X:X6.p a =.}.,X/. X*Xe.-.z.!.I m ",
"Q E E E E E E E } O.U K p.<.2XA.}.:.t 8 j._.).3X%X;X>.y.b.B.L S ",
"E E E E E E E E j |  .T.6.y./.2X>X~.b.s 0 6.(.A.*X~.y.1.9.d. .H.",
"E E E E E E E E #.E } C d.x.t.w.9.-X5.8 0 s.u.1X5.V.3.4.!.L H l ",
"E E E E } Q E E W H O.T L d.4.*.z.=.V.; w Q.6.r.s.d 0.!.L A  .@.",
"E Q E E E E E E } m } m #.Q ] 0X0X6X` U ' D c eXrXG ] E V W N l ",
"E E E E E L E E } H Q H | } U #.7X8XW O.W ( ..9XwXN } U [ H } | "
};
