/* XPM */
static char *_ea6f8dd152649899978d9beb4f94dfcJZ0HypouVmtqHcjd[] = {
/* columns rows colors chars-per-pixel */
"21 44 107 2 ",
"   c #53321D",
".  c #583521",
"X  c #593A27",
"o  c #5A3B28",
"O  c #5B3C29",
"+  c #5C3D2A",
"@  c #5F402C",
"#  c #60402B",
"$  c #61412C",
"%  c #60402D",
"&  c #62432E",
"*  c #684B36",
"=  c #6D4B34",
"-  c #6E4C35",
";  c #6F4C36",
":  c #6A4D39",
">  c #6E523F",
",  c #74513A",
"<  c #705340",
"1  c #725543",
"2  c #745643",
"3  c #775A45",
"4  c #775B47",
"5  c #785A48",
"6  c #785C4A",
"7  c #7A5C4A",
"8  c #7C5F4B",
"9  c #7B5E4D",
"0  c #7B624E",
"q  c #7C604D",
"w  c #7C624E",
"e  c #7E6450",
"r  c #846552",
"t  c #896F5C",
"y  c #8B7565",
"u  c #8C7E67",
"i  c #8D7F69",
"p  c #8D7F6A",
"a  c #8D816B",
"s  c #8E806A",
"d  c #8F816D",
"f  c #8F826C",
"g  c #8F836E",
"h  c #90826E",
"j  c #90846F",
"k  c #908471",
"l  c #928671",
"z  c #918572",
"x  c #938772",
"c  c #938774",
"v  c #948873",
"b  c #968872",
"n  c #968973",
"m  c #948875",
"M  c #958A77",
"N  c #978A76",
"B  c #998C77",
"V  c #968B79",
"C  c #978C7A",
"Z  c #988D78",
"A  c #988C7A",
"S  c #998E7A",
"D  c #988D7C",
"F  c #998E7C",
"G  c #9B8F7C",
"H  c #9B907F",
"J  c #9C907D",
"K  c #9D927F",
"L  c #46809E",
"P  c #48819F",
"I  c #548BA8",
"U  c #70A1B4",
"Y  c #9B9080",
"T  c #9D9381",
"R  c #9C9282",
"E  c #9D9282",
"W  c #9D9384",
"Q  c #9E9684",
"!  c #9F9787",
"~  c #9F9688",
"^  c #9F9788",
"/  c #A09686",
"(  c #A09689",
")  c #A1998B",
"_  c #A39A8B",
"`  c #A19A8C",
"'  c #A39B8D",
"]  c #A49C8E",
"[  c #A69E90",
"{  c #A79F91",
"}  c #A7A091",
"|  c #A9A190",
" . c #A9A191",
".. c #AAA294",
"X. c #ABA396",
"o. c #ACA495",
"O. c #ACA497",
"+. c #ACA597",
"@. c #ADA597",
"#. c #AEA69A",
"$. c #AFA69B",
"%. c #AFA79B",
"&. c #AFA79C",
"*. c #B0A79B",
"=. c #B0A89C",
"-. c #B1A99C",
";. c #B7B0A5",
/* pixels */
": : : : : : : : ; : : : : : : : : : : : : ",
": #. . .| | | |  . . . . . . . .| | | #.: ",
": #. . . . . . . . . . . . . . .{  .| #.: ",
": #. ..... . . .[ .. .[  . . . . . .{ *.: ",
": &...........O...O. .O.} o.o.o... . .=.: ",
": =.........#...O.O.O...O...o...O.O.O.=.: ",
": &...O.......#.....&.O.O...o.#.O.+.o.&.: ",
": &.O.O.#.#...#.&.+.O...&.O.+.+.o.o.+.=.: ",
": #.#.....+.#.+.+.&.+.+.O.*.O.o.+.+.%.=.: ",
": &.o.#.#.+.+.#.#.....#.O.O.+.+.+.+.o.=.: ",
": #.#.o.#.t &.+.&.+.&.+.O.*.=.y &.O.O.*.: ",
": &.#.+.r ) e &...+.#.+.O.#.r ) r +.%.*.: ",
": =.#.7 ) ) ) 7 #.#.#.O.*.5 ) ) ` 7 %.%.: ",
": =.#.8 ) y ) 8 #...X.*.=.8 ( y ) 7 &.%.: ",
": =.5 ) y y y ) 1 *.*.=.< ( y y y ^ 1 &.: ",
"% [ 5 ^ ^ ^ ^ ^ 5 / / E 1 ( ) ^ ^ ^ > } % ",
"@ [ E E E E G E R E E R E E E E ! ^ T } & ",
"% ] F F F F E Y Y R F E F E E E T T Q ] & ",
"% [ F E E F Y Y F Y E F E F D E R E R ] & ",
"% ) E w 5 4 7 5 e F F Y e 5 3 8 0 0 R ] & ",
"& Q H H ;.P L ;.D F F F S ;.P L ;.S F [ + ",
"% Q F C ;.U I ;.D V D D S ;.U I ;.S F _ & ",
"& Q C C A A A A S V V V V A V V S S F _ % ",
"& Q C C A V N A V V N N A V V V V V V ) & ",
"@ T C M S V N V N V , N N V V N C C N ! % ",
"% T M C M M N V V N = V V m N V N N C / & ",
"@ J S N V N V N V = N ; v N m N M C S / % ",
"@ H N M N V v M * m v m * M N m v M B K & ",
"% A m m m m M m M m m V V m N m m V M J % ",
"+ G N M m m m m m m m m m m v M M v M J & ",
"% S m m m c m v c c c c c c c m m m m G % ",
"+ S m m c c c c c c c c c c c c m v m J % ",
"% B c v c c c v c c c c c c c c v c c S # ",
"+ J g c c m c g c c c c k c f c v v c B % ",
"+ S g j v f g l s c c c c k c c j v v S % ",
"+ S j j g c a c k k f k f k c f h c j B % ",
"o M j v s h j j k k k k k k k k j j j B & ",
"O B a g h a s h f f f k f f k f j s h B & ",
"X N s a h h f a f f f p f f f f h s h N $ ",
"X N s s a h s f p f f p f f f f h s h b o ",
"X M f p s s s h f f p f p p p f p h p b o ",
"X v u s u s s p f p p f p k p p p s p v o ",
"  v u u s u u s p p p p s u p p u u u B   ",
"    o o o O X O X X X X X o X X X X + .   "
};
