/* XPM */
static char *HolsterWeaponReaper_Sheet1668627126[] = {
/* columns rows colors chars-per-pixel */
"32 32 217 2 ",
"   c #010301",
".  c #080002",
"X  c #000A02",
"o  c #07000C",
"O  c #09000C",
"+  c #000D0C",
"@  c #0C0F08",
"#  c #0F0A04",
"$  c #140009",
"%  c #190A05",
"&  c #071300",
"*  c #0D1206",
"=  c #06100F",
"-  c #0C1B0C",
";  c #0C1808",
":  c #14150C",
">  c #19160A",
",  c #0C0011",
"<  c #0F0818",
"1  c #030015",
"2  c #150C12",
"3  c #1A0C19",
"4  c #0A1216",
"5  c #0C1C17",
"6  c #0A191D",
"7  c #1B1213",
"8  c #171D12",
"9  c #1C131C",
"0  c #18191E",
"q  c #171619",
"w  c #231A16",
"e  c #08200A",
"r  c #092415",
"t  c #19241C",
"y  c #0D0920",
"u  c #150B28",
"i  c #131424",
"p  c #1E1122",
"a  c #1D1D22",
"s  c #17192E",
"d  c #14263C",
"f  c #222F3F",
"g  c #5E7108",
"h  c #5E7C18",
"j  c #637404",
"k  c #6B7203",
"l  c #6D730C",
"z  c #627C0E",
"x  c #6D7C0A",
"c  c #6B7B00",
"v  c #707703",
"b  c #727904",
"n  c #787A00",
"m  c #73750D",
"M  c #7D730D",
"N  c #747C0D",
"B  c #7C7D08",
"V  c #6D6E14",
"C  c #636D1F",
"Z  c #6E6E19",
"A  c #726E14",
"S  c #7A6C14",
"D  c #746D1A",
"F  c #796D1B",
"G  c #657313",
"H  c #6D7414",
"J  c #6D7C13",
"K  c #64721D",
"L  c #6C731C",
"P  c #647B1D",
"I  c #6C7B1A",
"U  c #737414",
"Y  c #7B7412",
"T  c #747B15",
"R  c #7B7A14",
"E  c #72751C",
"W  c #7A751B",
"Q  c #737A1C",
"!  c #797C1C",
"~  c #6D6E24",
"^  c #6A6D2C",
"/  c #726E24",
"(  c #7A6C22",
")  c #726F29",
"_  c #7A6A28",
"`  c #637524",
"'  c #6C7424",
"]  c #6C7C22",
"[  c #6D7429",
"{  c #69792D",
"}  c #737423",
"|  c #7A7523",
" . c #747A23",
".. c #797A22",
"X. c #73742C",
"o. c #7A742A",
"O. c #747A29",
"+. c #7A7C2C",
"@. c #6B7832",
"#. c #747433",
"$. c #7D7433",
"%. c #1C1F48",
"&. c #0C2A49",
"*. c #1D2C43",
"=. c #142B4D",
"-. c #172849",
";. c #0B304B",
":. c #133343",
">. c #13344B",
",. c #1E3648",
"<. c #0D2E54",
"1. c #0D2B5B",
"2. c #0E2654",
"3. c #102753",
"4. c #1E2554",
"5. c #142D53",
"6. c #1C2A54",
"7. c #15275A",
"8. c #1D265D",
"9. c #132B5B",
"0. c #1D2C5D",
"q. c #0D3456",
"w. c #0F345B",
"e. c #143356",
"r. c #1D3355",
"t. c #14335B",
"y. c #1B345C",
"u. c #173959",
"i. c #29284E",
"p. c #233346",
"a. c #20364D",
"s. c #212753",
"d. c #242A54",
"f. c #23255C",
"g. c #272B5F",
"h. c #223354",
"j. c #253359",
"k. c #0F2E67",
"l. c #162564",
"z. c #1B2565",
"x. c #1B2B63",
"c. c #1C2E69",
"v. c #142C6A",
"b. c #173164",
"n. c #193161",
"m. c #1E316B",
"M. c #1F3F7A",
"N. c #212463",
"B. c #242B65",
"V. c #283469",
"C. c #203B7E",
"Z. c #1B4175",
"A. c #1A427C",
"S. c #1C4D7F",
"D. c #14497D",
"F. c #25457A",
"G. c #806E24",
"H. c #827324",
"J. c #847F21",
"K. c #F94D59",
"L. c #FA5750",
"P. c #F3515C",
"I. c #FF5865",
"U. c #FC5068",
"Y. c #F15361",
"T. c #6E810B",
"R. c #73841A",
"E. c #798019",
"W. c #718317",
"Q. c #688318",
"!. c #768328",
"~. c #1B3C84",
"^. c #1D3F8D",
"/. c #153A84",
"(. c #1B3A95",
"). c #1C3E98",
"_. c #243D83",
"`. c #223C8C",
"'. c #2A3B8D",
"]. c #2A3F91",
"[. c #233A98",
"{. c #154484",
"}. c #1D4284",
"|. c #154884",
" X c #1D4986",
".X c #15468C",
"XX c #1E448E",
"oX c #194B8A",
"OX c #145086",
"+X c #0A4096",
"@X c #0E4C95",
"#X c #1E4492",
"$X c #1C4A95",
"%X c #1B419B",
"&X c #144490",
"*X c #224284",
"=X c #294A87",
"-X c #23428B",
";X c #2B448B",
":X c #20488E",
">X c #2B4D8D",
",X c #254784",
"<X c #324482",
"1X c #234393",
"2X c #244A92",
"3X c #2C4B93",
"4X c #255691",
"5X c #2743A2",
"6X c #AFB6A6",
"7X c #AEB3AC",
"8X c #BEADBD",
"9X c #B6B0B2",
"0X c #B5B7A9",
"qX c #B2C0AF",
"wX c #B3AFC0",
"eX c #AEB5C7",
"rX c #B6B9C0",
/* pixels */
"X.k W | X.~ T.E ] H G.S W O.m D E U E ( ' Y Q H.E E E E E E E E ",
"Q E E A l T #.E D W [ I j ` {  .T  .[ m  .G ' ' E E E E E E E E ",
"H U X.U v W D / W ~ z c.m.8.h.M./.5X`.A ' M T.} E E E E E E E E ",
"U ' O.E O.D N R I p.v.0.d ,X{.%X3XZ.*X>Xz P o.H E E E E E E E E ",
"E L #.U U ) +.C 9.h.5.^.3X,X`. X@X_.|.`.[..._ O.E E E E E E E Q ",
"E E E k ) } g V.x.e.:X`.~.^.X     , X &X3XM.W h E E E E L E E E ",
"m X.Q E n } V.-.5.*X~.oX=X    o   .       1XH T E E E E E E E E ",
"E X.m } E [ -.e.r.1X|._.  O .     1   . . {.Q ( E E E E E E E E ",
"H E Y ' T ,.x.q.`.XX.X. . , i - : ; > u   '.J.G E E E E E E E E ",
"X.V X.! G z.7.,.}.-XoXo   6 - K.U.5 = > P.D.G $.E E E E E E E E ",
"W _ ' E 6.d.y.0.*XA..X. + ; # I.P.3 i : L.).Y ' E E E E E E E E ",
"E Y E.z 6.y.&.x.|. XXX$ q w p : r 2 % 6 7 OXO.G L E Q E E E E E ",
"o.b ^ l.6.k.5.r.y.'.|.-X4 = ; 4 & 7 q * 4 M.S W E E E E E E E E ",
"} H E.j.f.>.a.2.9.`.A..X7 > - p p 3 9 5 %X5XK W E E E E E E E E ",
"Q V  .C f.8.=.y.,.1.>X).'.< i 4 @ 9 < :.;Xl m P E E E E E Q E L ",
"[ R Z R P P B.6.b.N.;.;X}.S.A.-X X{.d.q.F O.T } E E E E E E E E ",
"o.U $.T ~ Q H W 7.x.6.t.-Xq.9.v.y.4.i.X.E H Y E E E E E E E E E ",
"' b H ~ ! v X./ W.*.t.A.XX*X:.h.7.P Q H E l O.E E E E E E E E E ",
"T V U R ) V +.T X.8.(.4X(.'.<X=.V.s.G ..| ^ Q l E E E E E E E E ",
"E O./ m )  .L L 4.r.<.F.'.=.b.<.2.r.Q.} H X. .W E E E E E E E E ",
"L X.E A R [ x g.5.e.f k.x.y.5.t.^.-X'.[ B H ~ E E E Q E E E E E ",
"W H m o.~ I 4.8.e.-X=X~.*XF.7.x.1X.X*XR.Z } E.( E E L E E E E E ",
"T E m } !.%.j.<.3X*X/.:Xv.r a.'.Z.{.F.' D T j o.E E E E E E E E ",
"E o.E l ` p.1.w.M.$X{.*Xa q 0.D.-X$X1XK H.} J E E E E E E E E E ",
"[ W A  .i.9.t.*X}.XX#X;.0 w B.{.^.-X;Xh Q ( R [ E E E E E E E E ",
"m H I N.=.>.-X}.~. X}.=.0 a 4.:X}.}.`.4.' } l Q E E E E E E E E ",
"S L B.b.r.>.-X%X2X%X_.j.8 t :.~.D.2Xq.p.L U o.' E E E E E E E E ",
"o. .h.7.1.y.~.,XM.(.r.a s c.~.>X1X/.y.0.x ..E k E E E E E E L Q ",
"l T L { 6.5.V.<.1Xu.s.w t 2.=X9.t.t.0.d.` | K #.E E E E E E E E ",
"@.W D E !.8.*.4.e.4.J w * V.=.v.*.4.d.K J X.U | E E E E E E } E ",
"l N E A E I G 8XeXc ~ } x ` 6X0X0X'  .X.b } k } E E L E E E E E ",
"} } I [ m } N eX9X| ( U o.| 8X7XX.U | ..H | U O.E E E Q E E E E "
};
